G04 #@! TF.GenerationSoftware,KiCad,Pcbnew,7.0.7*
G04 #@! TF.CreationDate,2023-11-15T19:24:14-03:00*
G04 #@! TF.ProjectId,veiculo_MLK05Z,76656963-756c-46f5-9f4d-4c4b30355a2e,rev?*
G04 #@! TF.SameCoordinates,PX69db9c0PY79d4f70*
G04 #@! TF.FileFunction,Copper,L1,Top*
G04 #@! TF.FilePolarity,Positive*
%FSLAX46Y46*%
G04 Gerber Fmt 4.6, Leading zero omitted, Abs format (unit mm)*
G04 Created by KiCad (PCBNEW 7.0.7) date 2023-11-15 19:24:14*
%MOMM*%
%LPD*%
G01*
G04 APERTURE LIST*
G04 Aperture macros list*
%AMRoundRect*
0 Rectangle with rounded corners*
0 $1 Rounding radius*
0 $2 $3 $4 $5 $6 $7 $8 $9 X,Y pos of 4 corners*
0 Add a 4 corners polygon primitive as box body*
4,1,4,$2,$3,$4,$5,$6,$7,$8,$9,$2,$3,0*
0 Add four circle primitives for the rounded corners*
1,1,$1+$1,$2,$3*
1,1,$1+$1,$4,$5*
1,1,$1+$1,$6,$7*
1,1,$1+$1,$8,$9*
0 Add four rect primitives between the rounded corners*
20,1,$1+$1,$2,$3,$4,$5,0*
20,1,$1+$1,$4,$5,$6,$7,0*
20,1,$1+$1,$6,$7,$8,$9,0*
20,1,$1+$1,$8,$9,$2,$3,0*%
G04 Aperture macros list end*
G04 #@! TA.AperFunction,ComponentPad*
%ADD10RoundRect,0.431800X-0.431800X-0.584200X0.431800X-0.584200X0.431800X0.584200X-0.431800X0.584200X0*%
G04 #@! TD*
G04 #@! TA.AperFunction,ComponentPad*
%ADD11C,4.064000*%
G04 #@! TD*
G04 #@! TA.AperFunction,ComponentPad*
%ADD12R,1.700000X1.700000*%
G04 #@! TD*
G04 #@! TA.AperFunction,ComponentPad*
%ADD13C,2.000000*%
G04 #@! TD*
G04 #@! TA.AperFunction,SMDPad,CuDef*
%ADD14RoundRect,0.243750X-0.456250X0.243750X-0.456250X-0.243750X0.456250X-0.243750X0.456250X0.243750X0*%
G04 #@! TD*
G04 #@! TA.AperFunction,SMDPad,CuDef*
%ADD15RoundRect,0.243750X0.243750X0.456250X-0.243750X0.456250X-0.243750X-0.456250X0.243750X-0.456250X0*%
G04 #@! TD*
G04 #@! TA.AperFunction,ComponentPad*
%ADD16RoundRect,0.431800X0.431800X0.584200X-0.431800X0.584200X-0.431800X-0.584200X0.431800X-0.584200X0*%
G04 #@! TD*
G04 #@! TA.AperFunction,ComponentPad*
%ADD17RoundRect,0.431800X-0.584200X0.431800X-0.584200X-0.431800X0.584200X-0.431800X0.584200X0.431800X0*%
G04 #@! TD*
G04 #@! TA.AperFunction,ComponentPad*
%ADD18RoundRect,0.431800X0.584200X-0.431800X0.584200X0.431800X-0.584200X0.431800X-0.584200X-0.431800X0*%
G04 #@! TD*
G04 #@! TA.AperFunction,ComponentPad*
%ADD19R,1.727200X1.727200*%
G04 #@! TD*
G04 #@! TA.AperFunction,ComponentPad*
%ADD20O,1.727200X1.727200*%
G04 #@! TD*
G04 #@! TA.AperFunction,ViaPad*
%ADD21C,1.500000*%
G04 #@! TD*
G04 #@! TA.AperFunction,Conductor*
%ADD22C,0.500000*%
G04 #@! TD*
G04 #@! TA.AperFunction,Conductor*
%ADD23C,0.508000*%
G04 #@! TD*
G04 #@! TA.AperFunction,Conductor*
%ADD24C,1.000000*%
G04 #@! TD*
G04 #@! TA.AperFunction,Conductor*
%ADD25C,0.250000*%
G04 #@! TD*
G04 APERTURE END LIST*
D10*
X27938000Y3925000D03*
X30478000Y3925000D03*
X33018000Y3925000D03*
X35558000Y3925000D03*
X38098000Y3925000D03*
X40638000Y3925000D03*
X43178000Y3925000D03*
X45718000Y3925000D03*
X50798000Y3925000D03*
X53338000Y3925000D03*
X55878000Y3925000D03*
X58418000Y3925000D03*
X60958000Y3925000D03*
X63498000Y3925000D03*
X18794000Y52185000D03*
X21334000Y52185000D03*
X23874000Y52185000D03*
X26414000Y52185000D03*
X28954000Y52185000D03*
X31494000Y52185000D03*
X34034000Y52185000D03*
X36574000Y52185000D03*
X39114000Y52185000D03*
X41654000Y52185000D03*
X45718000Y52185000D03*
X48258000Y52185000D03*
X50798000Y52185000D03*
X53338000Y52185000D03*
X55878000Y52185000D03*
X58418000Y52185000D03*
X60958000Y52185000D03*
X63498000Y52185000D03*
D11*
X15238000Y52185000D03*
X66038000Y36945000D03*
X66038000Y9005000D03*
D12*
X33018000Y8497000D03*
D13*
X35558000Y8497000D03*
X38098000Y8497000D03*
X40638000Y8497000D03*
D14*
X43686000Y15863000D03*
X43686000Y13988000D03*
D15*
X40257000Y15863000D03*
X38382000Y15863000D03*
D16*
X51258000Y46065000D03*
X51258000Y48605000D03*
X31750000Y46075000D03*
X31750000Y48615000D03*
X57750000Y46035000D03*
X57750000Y48575000D03*
X27500000Y46095000D03*
X27500000Y48635000D03*
X54098000Y46085000D03*
X54098000Y48625000D03*
X44750000Y46035000D03*
X44750000Y48575000D03*
X40250000Y46005000D03*
X40250000Y48545000D03*
X18428000Y46730000D03*
X18428000Y49270000D03*
X21250000Y46710000D03*
X21250000Y49250000D03*
D17*
X29868000Y19495000D03*
X27328000Y19495000D03*
X29948000Y32105000D03*
X27408000Y32105000D03*
D10*
X59248000Y11355000D03*
X59248000Y8815000D03*
X53488000Y11345000D03*
X53488000Y8805000D03*
X56358000Y11345000D03*
X56358000Y8805000D03*
D16*
X61000000Y46035000D03*
X61000000Y48575000D03*
X35750000Y46055000D03*
X35750000Y48595000D03*
X48458000Y46065000D03*
X48458000Y48605000D03*
D18*
X51975000Y28250000D03*
X54515000Y28250000D03*
D10*
X50718000Y11425000D03*
X50718000Y8885000D03*
D18*
X51938000Y24500000D03*
X54478000Y24500000D03*
D19*
X18707640Y35832480D03*
D20*
X21247640Y35832480D03*
X18707640Y33292480D03*
X21247640Y33292480D03*
X18707640Y30752480D03*
X21247640Y30752480D03*
X18707640Y28212480D03*
X21247640Y28212480D03*
X18707640Y25672480D03*
X21247640Y25672480D03*
X18707640Y23132480D03*
X21247640Y23132480D03*
X18707640Y20592480D03*
X21247640Y20592480D03*
X18707640Y18052480D03*
X21247640Y18052480D03*
X18707640Y15512480D03*
X21247640Y15512480D03*
X18707640Y12972480D03*
X21247640Y12972480D03*
X18707640Y10432480D03*
X21247640Y10432480D03*
X18707640Y7892480D03*
X21247640Y7892480D03*
X18707640Y5352480D03*
X21247640Y5352480D03*
D21*
X38098000Y6338000D03*
X2250000Y36500000D03*
X34800000Y30887300D03*
X33499866Y34997204D03*
X38352000Y14212000D03*
X29250000Y35250000D03*
X52500000Y30750000D03*
X14500000Y37000000D03*
X33018000Y6338000D03*
X37100000Y20650000D03*
X52500000Y34750000D03*
X9808300Y35875000D03*
X64768000Y28055000D03*
X1445700Y28000000D03*
X21000000Y44500000D03*
X36443750Y36000000D03*
X32400000Y32250000D03*
X46250000Y36000000D03*
X42500000Y36000000D03*
X25569647Y44559500D03*
X6750000Y46750000D03*
X34200000Y20650000D03*
X47141303Y28750000D03*
X6500000Y10000000D03*
X6856000Y2655000D03*
X13113100Y32750000D03*
X50570400Y37004500D03*
X50764768Y41625632D03*
X45337000Y28750000D03*
X49124500Y40500000D03*
X23442200Y7735000D03*
X48500000Y36000000D03*
X8250000Y16750000D03*
X10250000Y16750000D03*
X14000000Y48750000D03*
X14000000Y46070700D03*
D22*
X29500000Y35000000D02*
X33497070Y35000000D01*
X2750000Y36000000D02*
X2750000Y4562180D01*
X52500000Y34750000D02*
X52500000Y30750000D01*
D23*
X38352000Y15833000D02*
X38382000Y15863000D01*
X34800000Y30887300D02*
X34800000Y22950000D01*
D22*
X6211980Y1100200D02*
X22348384Y1100200D01*
X10933300Y37000000D02*
X9808300Y35875000D01*
X2750000Y4562180D02*
X6211980Y1100200D01*
X2250000Y36500000D02*
X2750000Y36000000D01*
X14500000Y37000000D02*
X10933300Y37000000D01*
D24*
X33018000Y6338000D02*
X38098000Y6338000D01*
D23*
X38352000Y14212000D02*
X38352000Y15833000D01*
D22*
X22348384Y1100200D02*
X27586184Y6338000D01*
X29250000Y35250000D02*
X29500000Y35000000D01*
X27586184Y6338000D02*
X33018000Y6338000D01*
D23*
X34800000Y22950000D02*
X37100000Y20650000D01*
D22*
X33497070Y35000000D02*
X33499866Y34997204D01*
X18707640Y33292480D02*
X21247640Y35832480D01*
X29868000Y19495000D02*
X29868000Y32025000D01*
D25*
X29868000Y32025000D02*
X29948000Y32105000D01*
D22*
X26220520Y35832480D02*
X29948000Y32105000D01*
X21247640Y35832480D02*
X26220520Y35832480D01*
D23*
X46752524Y36002524D02*
X46252524Y36002524D01*
X32400000Y22450000D02*
X34200000Y20650000D01*
X42250000Y36250000D02*
X36693750Y36250000D01*
X46250000Y36000000D02*
X42500000Y36000000D01*
X33650000Y33500000D02*
X35500000Y33500000D01*
X36693750Y36250000D02*
X36443750Y36000000D01*
X32400000Y32250000D02*
X32400000Y22450000D01*
D22*
X9250000Y44250000D02*
X6750000Y46750000D01*
X25260147Y44250000D02*
X9250000Y44250000D01*
D23*
X36443750Y34443750D02*
X36443750Y36000000D01*
X42500000Y36000000D02*
X42250000Y36250000D01*
D22*
X25569647Y44559500D02*
X25260147Y44250000D01*
D23*
X32400000Y32250000D02*
X33650000Y33500000D01*
X46252524Y36002524D02*
X46250000Y36000000D01*
X35500000Y33500000D02*
X36443750Y34443750D01*
X40257000Y15863000D02*
X43686000Y15863000D01*
X45591000Y44223000D02*
X42180800Y40812800D01*
X9025160Y12972480D02*
X18707640Y12972480D01*
X5997200Y16000440D02*
X7506240Y14491400D01*
X5997200Y37913616D02*
X5997200Y16000440D01*
X7506240Y14491400D02*
X9025160Y12972480D01*
X42180800Y40812800D02*
X8896383Y40812800D01*
X8896383Y40812800D02*
X5997200Y37913616D01*
X7404640Y14593000D02*
X7506240Y14491400D01*
X45591000Y45581000D02*
X45591000Y44223000D01*
X8222520Y10432480D02*
X18707640Y10432480D01*
X8559710Y41625600D02*
X5184400Y38250288D01*
X5184400Y13470600D02*
X8222520Y10432480D01*
X40250000Y46005000D02*
X40250000Y42819000D01*
X5184400Y38250288D02*
X5184400Y13470600D01*
X40250000Y42819000D02*
X39056600Y41625600D01*
X39056600Y41625600D02*
X8559710Y41625600D01*
X10250000Y30752480D02*
X8500000Y32502480D01*
X8500000Y36968000D02*
X9844800Y38312800D01*
X61000000Y45662000D02*
X61000000Y46035000D01*
X53650800Y38312800D02*
X61000000Y45662000D01*
X8500000Y32502480D02*
X8500000Y36968000D01*
X9844800Y38312800D02*
X53650800Y38312800D01*
X18707640Y30752480D02*
X10250000Y30752480D01*
X47115000Y21197000D02*
X44321000Y18403000D01*
X47141303Y28750000D02*
X47076200Y28684897D01*
X26642590Y16421790D02*
X31246476Y16421790D01*
X44321000Y18403000D02*
X35151600Y18403000D01*
X22468954Y12972480D02*
X23251274Y13754800D01*
X47076200Y28684897D02*
X47076200Y21235800D01*
X23975600Y13754800D02*
X26642590Y16421790D01*
X47076200Y21235800D02*
X47115000Y21197000D01*
X31246476Y16421790D02*
X33227686Y18403000D01*
X21247640Y12972480D02*
X22468954Y12972480D01*
X33227686Y18403000D02*
X35151600Y18403000D01*
X23251274Y13754800D02*
X23975600Y13754800D01*
X4371599Y38586960D02*
X8223040Y42438400D01*
X6500000Y10000000D02*
X4371600Y12128400D01*
X21334000Y5266120D02*
X21247640Y5352480D01*
X21334000Y3493200D02*
X21334000Y5266120D01*
X4371600Y12128400D02*
X4371599Y38586960D01*
X31633400Y42438400D02*
X35250000Y46055000D01*
X20495800Y2655000D02*
X21334000Y3493200D01*
X6856000Y2655000D02*
X20495800Y2655000D01*
X8223040Y42438400D02*
X31633400Y42438400D01*
X53686472Y45581000D02*
X53973000Y45581000D01*
X15808800Y36457877D02*
X15808800Y36558800D01*
X13113100Y33863100D02*
X14941200Y35691200D01*
X13113100Y32750000D02*
X13113100Y33863100D01*
X14941200Y35691200D02*
X15042123Y35691200D01*
X50764768Y42659296D02*
X53686472Y45581000D01*
X16750000Y37500000D02*
X50074900Y37500000D01*
X15042123Y35691200D02*
X15808800Y36457877D01*
X15808800Y36558800D02*
X16750000Y37500000D01*
X50764768Y41625632D02*
X50764768Y42659296D01*
X50074900Y37500000D02*
X50570400Y37004500D01*
X32967200Y19292000D02*
X30909800Y17234600D01*
X22468954Y15512480D02*
X21247640Y15512480D01*
X22484194Y15497240D02*
X22468954Y15512480D01*
X45337000Y28750000D02*
X45337000Y20689000D01*
X23906453Y15497240D02*
X22484194Y15497240D01*
X43940000Y19292000D02*
X32967200Y19292000D01*
X25643813Y17234600D02*
X23906453Y15497240D01*
X30909800Y17234600D02*
X25643813Y17234600D01*
X45337000Y20689000D02*
X43940000Y19292000D01*
X49045447Y21857447D02*
X44575000Y17387000D01*
X23442200Y9462200D02*
X23442200Y7735000D01*
X49045447Y35454553D02*
X49045447Y21857447D01*
X49124500Y40500000D02*
X49124500Y42168500D01*
X48500000Y36000000D02*
X49045447Y35454553D01*
X44575000Y17387000D02*
X34491200Y17387000D01*
X34491200Y17387000D02*
X32586200Y15482000D01*
X51179000Y44223000D02*
X51179000Y45581000D01*
X49124500Y42168500D02*
X51179000Y44223000D01*
X29462000Y15482000D02*
X23442200Y9462200D01*
X32586200Y15482000D02*
X29462000Y15482000D01*
X6746043Y7892480D02*
X3558800Y11079723D01*
X29751200Y43251200D02*
X31240000Y44740000D01*
X18707640Y7892480D02*
X6746043Y7892480D01*
X3558800Y38923632D02*
X7886368Y43251200D01*
X7886368Y43251200D02*
X29751200Y43251200D01*
X31240000Y44740000D02*
X31240000Y45581000D01*
X3558800Y11079723D02*
X3558800Y38923632D01*
X44162000Y40000000D02*
X48385000Y44223000D01*
X9233056Y40000000D02*
X44162000Y40000000D01*
X6810000Y37576944D02*
X9233056Y40000000D01*
X8250000Y16750000D02*
X6810000Y18190000D01*
X48385000Y44223000D02*
X48385000Y45581000D01*
X6810000Y18190000D02*
X6810000Y37576944D01*
X57750000Y46035000D02*
X57221000Y46035000D01*
X51669600Y39125600D02*
X57750000Y45206000D01*
X10250000Y16750000D02*
X7622800Y19377200D01*
X7622800Y37240272D02*
X9508128Y39125600D01*
X7622800Y19377200D02*
X7622800Y37240272D01*
X57750000Y45206000D02*
X57750000Y46035000D01*
X9508128Y39125600D02*
X51669600Y39125600D01*
D22*
X14000000Y46070700D02*
X14000000Y48750000D01*
G04 #@! TA.AperFunction,Conductor*
G36*
X14024851Y54629498D02*
G01*
X14071344Y54575842D01*
X14081448Y54505568D01*
X14051954Y54440988D01*
X14017432Y54413087D01*
X13955910Y54379265D01*
X13874038Y54334255D01*
X13615424Y54146360D01*
X13615423Y54146360D01*
X13382390Y53927527D01*
X13178623Y53681215D01*
X13007346Y53411325D01*
X13007339Y53411311D01*
X12871236Y53122077D01*
X12871234Y53122073D01*
X12772450Y52818050D01*
X12772448Y52818042D01*
X12712550Y52504046D01*
X12712547Y52504022D01*
X12692477Y52185007D01*
X12692477Y52184994D01*
X12712547Y51865979D01*
X12712548Y51865966D01*
X12712549Y51865961D01*
X12772449Y51551954D01*
X12871233Y51247930D01*
X13007341Y50958685D01*
X13007343Y50958682D01*
X13007346Y50958676D01*
X13178623Y50688786D01*
X13382390Y50442474D01*
X13615423Y50223641D01*
X13677019Y50178889D01*
X13720373Y50122667D01*
X13726448Y50051931D01*
X13693317Y49989139D01*
X13635570Y49955247D01*
X13567934Y49937124D01*
X13567920Y49937119D01*
X13368346Y49844056D01*
X13187965Y49717752D01*
X13187959Y49717747D01*
X13032253Y49562041D01*
X13032248Y49562035D01*
X12905944Y49381654D01*
X12812881Y49182080D01*
X12812880Y49182076D01*
X12755885Y48969371D01*
X12736693Y48750000D01*
X12755885Y48530629D01*
X12759298Y48517892D01*
X12812879Y48317927D01*
X12812881Y48317921D01*
X12890785Y48150855D01*
X12905944Y48118346D01*
X13027329Y47944992D01*
X13032251Y47937962D01*
X13032254Y47937958D01*
X13187954Y47782258D01*
X13192172Y47778719D01*
X13191416Y47777819D01*
X13232094Y47726942D01*
X13241500Y47679173D01*
X13241500Y47141529D01*
X13221498Y47073408D01*
X13191769Y47042475D01*
X13192178Y47041987D01*
X13187963Y47038451D01*
X13032248Y46882735D01*
X12905944Y46702354D01*
X12812881Y46502780D01*
X12812880Y46502776D01*
X12755885Y46290071D01*
X12736693Y46070700D01*
X12755885Y45851329D01*
X12774395Y45782251D01*
X12812879Y45638627D01*
X12812881Y45638621D01*
X12894066Y45464518D01*
X12905944Y45439046D01*
X13029130Y45263119D01*
X13032251Y45258662D01*
X13032254Y45258658D01*
X13067317Y45223595D01*
X13101343Y45161283D01*
X13096278Y45090468D01*
X13053731Y45033632D01*
X12987211Y45008821D01*
X12978222Y45008500D01*
X9616371Y45008500D01*
X9548250Y45028502D01*
X9527276Y45045405D01*
X8039517Y46533164D01*
X8005491Y46595476D01*
X8003092Y46633241D01*
X8013307Y46749995D01*
X8013306Y46749996D01*
X8013307Y46750000D01*
X7994115Y46969371D01*
X7937120Y47182076D01*
X7844056Y47381653D01*
X7717749Y47562038D01*
X7562038Y47717749D01*
X7552385Y47724508D01*
X7512903Y47752154D01*
X7381654Y47844056D01*
X7341260Y47862892D01*
X7182079Y47937119D01*
X7182073Y47937121D01*
X7011766Y47982755D01*
X6969371Y47994115D01*
X6750000Y48013307D01*
X6530629Y47994115D01*
X6317926Y47937121D01*
X6317920Y47937119D01*
X6118346Y47844056D01*
X5937965Y47717752D01*
X5937959Y47717747D01*
X5782253Y47562041D01*
X5782248Y47562035D01*
X5655944Y47381654D01*
X5562881Y47182080D01*
X5562879Y47182074D01*
X5510884Y46988029D01*
X5505885Y46969371D01*
X5486693Y46750000D01*
X5505885Y46530629D01*
X5513349Y46502774D01*
X5562879Y46317927D01*
X5562881Y46317921D01*
X5651337Y46128225D01*
X5655944Y46118346D01*
X5754290Y45977894D01*
X5782251Y45937962D01*
X5782254Y45937958D01*
X5937957Y45782255D01*
X5937961Y45782252D01*
X5937962Y45782251D01*
X6118346Y45655944D01*
X6317924Y45562880D01*
X6530629Y45505885D01*
X6750000Y45486693D01*
X6750002Y45486694D01*
X6750005Y45486693D01*
X6866759Y45496908D01*
X6936364Y45482920D01*
X6966836Y45460483D01*
X8198524Y44228795D01*
X8232550Y44166483D01*
X8227485Y44095668D01*
X8184938Y44038832D01*
X8118418Y44014021D01*
X8109429Y44013700D01*
X7951095Y44013700D01*
X7932835Y44015030D01*
X7908695Y44018566D01*
X7908693Y44018566D01*
X7908692Y44018566D01*
X7888660Y44016814D01*
X7855817Y44013940D01*
X7850333Y44013700D01*
X7841951Y44013700D01*
X7808840Y44009830D01*
X7731133Y44003032D01*
X7723946Y44001547D01*
X7723933Y44001606D01*
X7716449Y43999947D01*
X7716463Y43999889D01*
X7709318Y43998196D01*
X7635995Y43971508D01*
X7561927Y43946966D01*
X7555281Y43943866D01*
X7555256Y43943920D01*
X7548355Y43940579D01*
X7548382Y43940525D01*
X7541831Y43937236D01*
X7508584Y43915370D01*
X7476644Y43894362D01*
X7428467Y43864645D01*
X7410216Y43853387D01*
X7404465Y43848839D01*
X7404428Y43848886D01*
X7398490Y43844050D01*
X7398529Y43844004D01*
X7392908Y43839288D01*
X7339362Y43782533D01*
X3065402Y39508574D01*
X3051553Y39496604D01*
X3031979Y39482031D01*
X3031976Y39482029D01*
X2997856Y39441367D01*
X2994149Y39437321D01*
X2988228Y39431399D01*
X2988228Y39431398D01*
X2967554Y39405253D01*
X2917404Y39345485D01*
X2913374Y39339357D01*
X2913323Y39339390D01*
X2909205Y39332926D01*
X2909255Y39332895D01*
X2905407Y39326658D01*
X2872425Y39255927D01*
X2837404Y39186194D01*
X2834895Y39179300D01*
X2834839Y39179321D01*
X2832325Y39172087D01*
X2832382Y39172068D01*
X2830075Y39165108D01*
X2814298Y39088698D01*
X2796299Y39012754D01*
X2795448Y39005465D01*
X2795387Y39005473D01*
X2794609Y38997859D01*
X2794671Y38997853D01*
X2794031Y38990542D01*
X2796300Y38912556D01*
X2796299Y37820721D01*
X2776297Y37752600D01*
X2722641Y37706107D01*
X2652367Y37696004D01*
X2637688Y37699014D01*
X2594393Y37710615D01*
X2469371Y37744115D01*
X2250000Y37763307D01*
X2249999Y37763307D01*
X2030629Y37744115D01*
X1817926Y37687121D01*
X1817920Y37687119D01*
X1618346Y37594056D01*
X1437965Y37467752D01*
X1437959Y37467747D01*
X1282253Y37312041D01*
X1282248Y37312035D01*
X1155944Y37131654D01*
X1062881Y36932080D01*
X1062880Y36932076D01*
X1005885Y36719371D01*
X986693Y36500000D01*
X1005885Y36280629D01*
X1031690Y36184325D01*
X1062879Y36067927D01*
X1062881Y36067921D01*
X1148219Y35884913D01*
X1155944Y35868346D01*
X1270375Y35704923D01*
X1282251Y35687962D01*
X1282254Y35687958D01*
X1437957Y35532255D01*
X1437961Y35532252D01*
X1437962Y35532251D01*
X1618346Y35405944D01*
X1817924Y35312880D01*
X1898111Y35291394D01*
X1958734Y35254442D01*
X1989755Y35190581D01*
X1991500Y35169687D01*
X1991500Y28846887D01*
X1971498Y28778766D01*
X1917842Y28732273D01*
X1847568Y28722169D01*
X1823884Y28727958D01*
X1659884Y28785345D01*
X1602193Y28826724D01*
X1576030Y28892724D01*
X1575500Y28904274D01*
X1575500Y29068315D01*
X1561549Y29106644D01*
X1561549Y29106645D01*
X1513951Y29134125D01*
X1459827Y29124581D01*
X1424500Y29082481D01*
X1424500Y28904274D01*
X1404498Y28836153D01*
X1350842Y28789660D01*
X1340116Y28785345D01*
X1175946Y28727898D01*
X1175945Y28727898D01*
X1034338Y28638921D01*
X916079Y28520662D01*
X827102Y28379055D01*
X769656Y28214884D01*
X728277Y28157193D01*
X662277Y28131030D01*
X650727Y28130500D01*
X486685Y28130500D01*
X448356Y28116550D01*
X448355Y28116550D01*
X420875Y28068952D01*
X430418Y28014829D01*
X430419Y28014828D01*
X472520Y27979500D01*
X650727Y27979500D01*
X718848Y27959498D01*
X765341Y27905842D01*
X769656Y27895116D01*
X771862Y27888810D01*
X771863Y27888808D01*
X803703Y27797816D01*
X827102Y27730946D01*
X916079Y27589339D01*
X1034338Y27471080D01*
X1175945Y27382103D01*
X1175946Y27382103D01*
X1175949Y27382101D01*
X1333808Y27326863D01*
X1333811Y27326863D01*
X1340115Y27324657D01*
X1397807Y27283279D01*
X1423969Y27217279D01*
X1424500Y27205728D01*
X1424500Y27041686D01*
X1424499Y27041686D01*
X1438450Y27003357D01*
X1438450Y27003356D01*
X1486048Y26975876D01*
X1540172Y26985419D01*
X1575500Y27027520D01*
X1575500Y27205729D01*
X1595502Y27273849D01*
X1649158Y27320342D01*
X1659885Y27324657D01*
X1666188Y27326863D01*
X1666192Y27326863D01*
X1823885Y27382044D01*
X1894789Y27385663D01*
X1956394Y27350373D01*
X1989141Y27287380D01*
X1991500Y27263114D01*
X1991500Y4626621D01*
X1990170Y4608361D01*
X1986659Y4584394D01*
X1986659Y4584386D01*
X1991260Y4531808D01*
X1991500Y4526314D01*
X1991500Y4517998D01*
X1995347Y4485086D01*
X2002112Y4407761D01*
X2003596Y4400574D01*
X2003531Y4400561D01*
X2005165Y4393191D01*
X2005229Y4393205D01*
X2006921Y4386064D01*
X2033473Y4313116D01*
X2057885Y4239444D01*
X2060987Y4232792D01*
X2060926Y4232764D01*
X2064211Y4225978D01*
X2064270Y4226007D01*
X2067560Y4219456D01*
X2067564Y4219449D01*
X2067565Y4219448D01*
X2080443Y4199868D01*
X2110233Y4154575D01*
X2150967Y4088532D01*
X2155522Y4082772D01*
X2155468Y4082730D01*
X2160228Y4076888D01*
X2160279Y4076930D01*
X2164993Y4071312D01*
X2221482Y4018017D01*
X5630072Y609427D01*
X5642045Y595573D01*
X5656510Y576143D01*
X5696955Y542206D01*
X5701001Y538498D01*
X5706879Y532620D01*
X5732876Y512064D01*
X5792340Y462168D01*
X5792346Y462165D01*
X5798475Y458133D01*
X5798437Y458077D01*
X5804791Y454029D01*
X5804827Y454086D01*
X5811069Y450236D01*
X5811071Y450235D01*
X5811074Y450233D01*
X5881427Y417427D01*
X5908766Y403697D01*
X5960663Y355251D01*
X5978130Y286436D01*
X5955620Y219103D01*
X5900280Y174628D01*
X5852216Y165100D01*
X199500Y165100D01*
X131379Y185102D01*
X84886Y238758D01*
X73500Y291100D01*
X73500Y54523500D01*
X93502Y54591621D01*
X147158Y54638114D01*
X199500Y54649500D01*
X13956730Y54649500D01*
X14024851Y54629498D01*
G37*
G04 #@! TD.AperFunction*
G04 #@! TA.AperFunction,Conductor*
G36*
X64634621Y27959498D02*
G01*
X64681114Y27905842D01*
X64692500Y27853500D01*
X64692500Y27640447D01*
X64672498Y27572326D01*
X64618842Y27525833D01*
X64548568Y27515729D01*
X64518284Y27524038D01*
X64487743Y27536688D01*
X64459258Y27553132D01*
X64363135Y27626891D01*
X64339890Y27650136D01*
X64266130Y27746261D01*
X64249687Y27774742D01*
X64240129Y27797816D01*
X64237036Y27805283D01*
X64229448Y27875872D01*
X64261227Y27939359D01*
X64322286Y27975586D01*
X64353446Y27979500D01*
X64566500Y27979500D01*
X64634621Y27959498D01*
G37*
G04 #@! TD.AperFunction*
G04 #@! TA.AperFunction,Conductor*
G36*
X65250675Y27959498D02*
G01*
X65297168Y27905842D01*
X65307272Y27835568D01*
X65298962Y27805279D01*
X65286311Y27774739D01*
X65269865Y27746256D01*
X65196112Y27650140D01*
X65172860Y27626888D01*
X65086087Y27560304D01*
X65076744Y27553134D01*
X65048258Y27536688D01*
X65017718Y27524038D01*
X64947128Y27516449D01*
X64883641Y27548228D01*
X64847414Y27609287D01*
X64843500Y27640447D01*
X64843500Y27853500D01*
X64863502Y27921621D01*
X64917158Y27968114D01*
X64969500Y27979500D01*
X65182554Y27979500D01*
X65250675Y27959498D01*
G37*
G04 #@! TD.AperFunction*
G04 #@! TA.AperFunction,Conductor*
G36*
X64652360Y28561772D02*
G01*
X64688587Y28500713D01*
X64692500Y28469554D01*
X64692500Y28256500D01*
X64672498Y28188379D01*
X64618842Y28141886D01*
X64566500Y28130500D01*
X64353446Y28130500D01*
X64285325Y28150502D01*
X64238832Y28204158D01*
X64228728Y28274432D01*
X64237037Y28304716D01*
X64249687Y28335257D01*
X64266127Y28363737D01*
X64339894Y28459870D01*
X64363130Y28483106D01*
X64459263Y28556873D01*
X64487743Y28573313D01*
X64518284Y28585963D01*
X64588873Y28593552D01*
X64652360Y28561772D01*
G37*
G04 #@! TD.AperFunction*
G04 #@! TA.AperFunction,Conductor*
G36*
X65017717Y28585964D02*
G01*
X65022051Y28584168D01*
X65048258Y28573313D01*
X65076739Y28556870D01*
X65172864Y28483110D01*
X65196109Y28459865D01*
X65269868Y28363742D01*
X65286311Y28335261D01*
X65298962Y28304720D01*
X65306552Y28234130D01*
X65274774Y28170643D01*
X65213716Y28134414D01*
X65182554Y28130500D01*
X64969500Y28130500D01*
X64901379Y28150502D01*
X64854886Y28204158D01*
X64843500Y28256500D01*
X64843500Y28469554D01*
X64863502Y28537675D01*
X64917158Y28584168D01*
X64987432Y28594272D01*
X65017717Y28585964D01*
G37*
G04 #@! TD.AperFunction*
G04 #@! TA.AperFunction,Conductor*
G36*
X64498658Y54629498D02*
G01*
X64519632Y54612595D01*
X65925595Y53206632D01*
X65959621Y53144320D01*
X65962500Y53117537D01*
X65962500Y41816244D01*
X65959949Y41796866D01*
X65962260Y41770445D01*
X65962500Y41764953D01*
X65962500Y41757689D01*
X65963762Y41750529D01*
X65964479Y41745081D01*
X65965182Y41737044D01*
X65969652Y41727459D01*
X65976451Y41719356D01*
X65976452Y41719355D01*
X65977243Y41718898D01*
X65977273Y41718881D01*
X66003372Y41698855D01*
X68463860Y39238367D01*
X68497886Y39176055D01*
X68500761Y39150234D01*
X68502500Y38922501D01*
X68502500Y38236536D01*
X68482498Y38168415D01*
X68428842Y38121922D01*
X68358568Y38111818D01*
X68293988Y38141312D01*
X68270115Y38169022D01*
X68097376Y38441215D01*
X67893609Y38687527D01*
X67660576Y38906360D01*
X67401961Y39094255D01*
X67359026Y39117859D01*
X67121831Y39248258D01*
X67015405Y39290395D01*
X66824615Y39365935D01*
X66824597Y39365940D01*
X66514997Y39445432D01*
X66514989Y39445434D01*
X66514983Y39445435D01*
X66514973Y39445437D01*
X66514969Y39445437D01*
X66197849Y39485499D01*
X66197838Y39485500D01*
X66197835Y39485500D01*
X65878165Y39485500D01*
X65878162Y39485500D01*
X65878150Y39485499D01*
X65561030Y39445437D01*
X65561023Y39445436D01*
X65561017Y39445435D01*
X65561012Y39445434D01*
X65561002Y39445432D01*
X65251402Y39365940D01*
X65251384Y39365935D01*
X64954169Y39248258D01*
X64674038Y39094255D01*
X64415424Y38906360D01*
X64415423Y38906360D01*
X64182390Y38687527D01*
X63978623Y38441215D01*
X63807346Y38171325D01*
X63807339Y38171311D01*
X63671236Y37882077D01*
X63671234Y37882073D01*
X63572450Y37578050D01*
X63572448Y37578042D01*
X63512550Y37264046D01*
X63512547Y37264022D01*
X63492477Y36945007D01*
X63492477Y36944994D01*
X63512547Y36625979D01*
X63512550Y36625955D01*
X63549535Y36432074D01*
X63572449Y36311954D01*
X63671233Y36007930D01*
X63807341Y35718685D01*
X63807343Y35718682D01*
X63807346Y35718676D01*
X63978623Y35448786D01*
X64182390Y35202474D01*
X64182393Y35202472D01*
X64182394Y35202470D01*
X64368742Y35027477D01*
X64415423Y34983641D01*
X64650452Y34812882D01*
X64674041Y34795744D01*
X64954169Y34641742D01*
X65147674Y34565128D01*
X65251384Y34524066D01*
X65251387Y34524066D01*
X65251390Y34524064D01*
X65561017Y34444565D01*
X65878165Y34404500D01*
X65878169Y34404500D01*
X66197831Y34404500D01*
X66197835Y34404500D01*
X66514983Y34444565D01*
X66824610Y34524064D01*
X67121831Y34641742D01*
X67401959Y34795744D01*
X67660577Y34983641D01*
X67893606Y35202470D01*
X68097371Y35448779D01*
X68097373Y35448784D01*
X68097376Y35448786D01*
X68270115Y35720979D01*
X68323504Y35767778D01*
X68393719Y35778283D01*
X68458467Y35749159D01*
X68497191Y35689653D01*
X68502500Y35653465D01*
X68502500Y10296536D01*
X68482498Y10228415D01*
X68428842Y10181922D01*
X68358568Y10171818D01*
X68293988Y10201312D01*
X68270115Y10229022D01*
X68097376Y10501215D01*
X67893609Y10747527D01*
X67660576Y10966360D01*
X67401961Y11154255D01*
X67291499Y11214982D01*
X67121831Y11308258D01*
X67036282Y11342129D01*
X66824615Y11425935D01*
X66824597Y11425940D01*
X66514997Y11505432D01*
X66514989Y11505434D01*
X66514983Y11505435D01*
X66514973Y11505437D01*
X66514969Y11505437D01*
X66197849Y11545499D01*
X66197838Y11545500D01*
X66197835Y11545500D01*
X65878165Y11545500D01*
X65878162Y11545500D01*
X65878150Y11545499D01*
X65561030Y11505437D01*
X65561023Y11505436D01*
X65561017Y11505435D01*
X65561012Y11505434D01*
X65561002Y11505432D01*
X65251402Y11425940D01*
X65251384Y11425935D01*
X64954169Y11308258D01*
X64674038Y11154255D01*
X64415424Y10966360D01*
X64415423Y10966360D01*
X64182390Y10747527D01*
X63978623Y10501215D01*
X63807346Y10231325D01*
X63807339Y10231311D01*
X63671236Y9942077D01*
X63671234Y9942073D01*
X63572450Y9638050D01*
X63572448Y9638042D01*
X63512550Y9324046D01*
X63512547Y9324022D01*
X63492477Y9005007D01*
X63492477Y9004994D01*
X63512547Y8685979D01*
X63512550Y8685955D01*
X63541668Y8533313D01*
X63572449Y8371954D01*
X63671233Y8067930D01*
X63807341Y7778685D01*
X63807343Y7778682D01*
X63807346Y7778676D01*
X63978623Y7508786D01*
X64182390Y7262474D01*
X64182393Y7262472D01*
X64182394Y7262470D01*
X64351844Y7103346D01*
X64415423Y7043641D01*
X64581465Y6923004D01*
X64674041Y6855744D01*
X64954169Y6701742D01*
X65154362Y6622480D01*
X65251384Y6584066D01*
X65251387Y6584066D01*
X65251390Y6584064D01*
X65561017Y6504565D01*
X65878165Y6464500D01*
X65878169Y6464500D01*
X66197831Y6464500D01*
X66197835Y6464500D01*
X66514983Y6504565D01*
X66824610Y6584064D01*
X67121831Y6701742D01*
X67401959Y6855744D01*
X67660577Y7043641D01*
X67893606Y7262470D01*
X68097371Y7508779D01*
X68097373Y7508784D01*
X68097376Y7508786D01*
X68270115Y7780979D01*
X68323504Y7827778D01*
X68393719Y7838283D01*
X68458467Y7809159D01*
X68497191Y7749653D01*
X68502500Y7713465D01*
X68502500Y6548465D01*
X68482498Y6480344D01*
X68465595Y6459370D01*
X66069552Y4063328D01*
X66067383Y4061260D01*
X65995801Y3996184D01*
X65986295Y3980841D01*
X65986047Y3980543D01*
X65984160Y3978295D01*
X65980467Y3974243D01*
X65975197Y3968973D01*
X65971027Y3963017D01*
X65967686Y3958662D01*
X65962499Y3952481D01*
X65958880Y3942539D01*
X65957959Y3932004D01*
X65958206Y3931084D01*
X65962500Y3898470D01*
X65962500Y291100D01*
X65942498Y222979D01*
X65888842Y176486D01*
X65836500Y165100D01*
X22718387Y165100D01*
X22650266Y185102D01*
X22603773Y238758D01*
X22593669Y309032D01*
X22623163Y373612D01*
X22665130Y405292D01*
X22671117Y408085D01*
X22671122Y408086D01*
X22671125Y408089D01*
X22677772Y411188D01*
X22677801Y411126D01*
X22684587Y414411D01*
X22684557Y414471D01*
X22691112Y417764D01*
X22691116Y417765D01*
X22755989Y460434D01*
X22822035Y501170D01*
X22822044Y501180D01*
X22827792Y505723D01*
X22827834Y505669D01*
X22833673Y510425D01*
X22833630Y510477D01*
X22839249Y515194D01*
X22839258Y515199D01*
X22892547Y571683D01*
X24444548Y2123684D01*
X26350805Y4029940D01*
X26413117Y4063966D01*
X26483932Y4058901D01*
X26540768Y4016354D01*
X26565579Y3949834D01*
X26565900Y3940845D01*
X26565900Y3274989D01*
X26572361Y3192892D01*
X26623518Y3001973D01*
X26688534Y2874371D01*
X26713255Y2825855D01*
X26837645Y2672245D01*
X26991255Y2547855D01*
X27167371Y2458119D01*
X27358294Y2406961D01*
X27421005Y2402026D01*
X27440389Y2400500D01*
X27440392Y2400500D01*
X28435611Y2400500D01*
X28453579Y2401915D01*
X28517706Y2406961D01*
X28708629Y2458119D01*
X28884745Y2547855D01*
X29038355Y2672245D01*
X29038644Y2672601D01*
X29110079Y2760818D01*
X29168493Y2801171D01*
X29239450Y2803537D01*
X29300422Y2767165D01*
X29305921Y2760818D01*
X29377642Y2672247D01*
X29440520Y2621331D01*
X29531255Y2547855D01*
X29707371Y2458119D01*
X29898294Y2406961D01*
X29961006Y2402026D01*
X29980389Y2400500D01*
X29980392Y2400500D01*
X30975611Y2400500D01*
X30993579Y2401915D01*
X31057706Y2406961D01*
X31248629Y2458119D01*
X31424745Y2547855D01*
X31578355Y2672245D01*
X31578644Y2672601D01*
X31650079Y2760818D01*
X31708493Y2801171D01*
X31779450Y2803537D01*
X31840422Y2767165D01*
X31845921Y2760818D01*
X31917642Y2672247D01*
X31980520Y2621331D01*
X32071255Y2547855D01*
X32247371Y2458119D01*
X32438294Y2406961D01*
X32501005Y2402026D01*
X32520389Y2400500D01*
X32520392Y2400500D01*
X33515611Y2400500D01*
X33533579Y2401915D01*
X33597706Y2406961D01*
X33788629Y2458119D01*
X33964745Y2547855D01*
X34118355Y2672245D01*
X34118644Y2672601D01*
X34190079Y2760818D01*
X34248493Y2801171D01*
X34319450Y2803537D01*
X34380422Y2767165D01*
X34385921Y2760818D01*
X34457642Y2672247D01*
X34520520Y2621331D01*
X34611255Y2547855D01*
X34787371Y2458119D01*
X34978294Y2406961D01*
X35041006Y2402026D01*
X35060389Y2400500D01*
X35060392Y2400500D01*
X36055611Y2400500D01*
X36073579Y2401915D01*
X36137706Y2406961D01*
X36328629Y2458119D01*
X36504745Y2547855D01*
X36658355Y2672245D01*
X36658644Y2672601D01*
X36730079Y2760818D01*
X36788493Y2801171D01*
X36859450Y2803537D01*
X36920422Y2767165D01*
X36925921Y2760818D01*
X36997642Y2672247D01*
X37060520Y2621331D01*
X37151255Y2547855D01*
X37327371Y2458119D01*
X37518294Y2406961D01*
X37581005Y2402026D01*
X37600389Y2400500D01*
X37600392Y2400500D01*
X38595611Y2400500D01*
X38613579Y2401915D01*
X38677706Y2406961D01*
X38868629Y2458119D01*
X39044745Y2547855D01*
X39198355Y2672245D01*
X39270402Y2761217D01*
X39328814Y2801567D01*
X39399771Y2803933D01*
X39460743Y2767561D01*
X39466242Y2761215D01*
X39538000Y2672601D01*
X39691528Y2548277D01*
X39691531Y2548276D01*
X39867552Y2458588D01*
X40058370Y2407458D01*
X40140415Y2401001D01*
X40384000Y2401001D01*
X40384000Y3302884D01*
X40404002Y3371005D01*
X40457658Y3417498D01*
X40527929Y3427602D01*
X40527932Y3427602D01*
X40527932Y3427601D01*
X40575258Y3420797D01*
X40601666Y3417000D01*
X40674334Y3417000D01*
X40713645Y3422653D01*
X40748068Y3427601D01*
X40818342Y3417498D01*
X40871998Y3371005D01*
X40892000Y3302884D01*
X40892000Y2401001D01*
X41135583Y2401001D01*
X41217625Y2407457D01*
X41408447Y2458588D01*
X41584468Y2548276D01*
X41584471Y2548277D01*
X41737999Y2672601D01*
X41810079Y2761612D01*
X41868493Y2801964D01*
X41939450Y2804330D01*
X42000422Y2767958D01*
X42005921Y2761612D01*
X42078000Y2672601D01*
X42231528Y2548277D01*
X42231531Y2548276D01*
X42407552Y2458588D01*
X42598370Y2407458D01*
X42680415Y2401001D01*
X42924000Y2401001D01*
X42924000Y3302884D01*
X42944002Y3371005D01*
X42997658Y3417498D01*
X43067929Y3427602D01*
X43067932Y3427602D01*
X43067932Y3427601D01*
X43115258Y3420797D01*
X43141666Y3417000D01*
X43214334Y3417000D01*
X43253645Y3422653D01*
X43288068Y3427601D01*
X43358342Y3417498D01*
X43411998Y3371005D01*
X43432000Y3302884D01*
X43432000Y2401001D01*
X43675583Y2401001D01*
X43757625Y2407457D01*
X43948447Y2458588D01*
X44124468Y2548276D01*
X44124471Y2548277D01*
X44278002Y2672602D01*
X44349757Y2761214D01*
X44408170Y2801567D01*
X44479128Y2803933D01*
X44540100Y2767561D01*
X44545599Y2761215D01*
X44549829Y2755991D01*
X44617645Y2672245D01*
X44771255Y2547855D01*
X44947371Y2458119D01*
X45138294Y2406961D01*
X45201006Y2402026D01*
X45220389Y2400500D01*
X45220392Y2400500D01*
X46215611Y2400500D01*
X46233579Y2401915D01*
X46297706Y2406961D01*
X46488629Y2458119D01*
X46664745Y2547855D01*
X46818355Y2672245D01*
X46942745Y2825855D01*
X47032481Y3001971D01*
X47083639Y3192894D01*
X47090100Y3274989D01*
X49425900Y3274989D01*
X49432361Y3192892D01*
X49483518Y3001973D01*
X49548534Y2874371D01*
X49573255Y2825855D01*
X49697645Y2672245D01*
X49851255Y2547855D01*
X50027371Y2458119D01*
X50218294Y2406961D01*
X50281006Y2402026D01*
X50300389Y2400500D01*
X50300392Y2400500D01*
X51295611Y2400500D01*
X51313579Y2401915D01*
X51377706Y2406961D01*
X51568629Y2458119D01*
X51744745Y2547855D01*
X51898355Y2672245D01*
X51898644Y2672601D01*
X51970079Y2760818D01*
X52028493Y2801171D01*
X52099450Y2803537D01*
X52160422Y2767165D01*
X52165921Y2760818D01*
X52237642Y2672247D01*
X52300520Y2621331D01*
X52391255Y2547855D01*
X52567371Y2458119D01*
X52758294Y2406961D01*
X52821005Y2402026D01*
X52840389Y2400500D01*
X52840392Y2400500D01*
X53835611Y2400500D01*
X53853579Y2401915D01*
X53917706Y2406961D01*
X54108629Y2458119D01*
X54284745Y2547855D01*
X54438355Y2672245D01*
X54438644Y2672601D01*
X54510079Y2760818D01*
X54568493Y2801171D01*
X54639450Y2803537D01*
X54700422Y2767165D01*
X54705921Y2760818D01*
X54777642Y2672247D01*
X54840520Y2621331D01*
X54931255Y2547855D01*
X55107371Y2458119D01*
X55298294Y2406961D01*
X55361006Y2402026D01*
X55380389Y2400500D01*
X55380392Y2400500D01*
X56375611Y2400500D01*
X56393579Y2401915D01*
X56457706Y2406961D01*
X56648629Y2458119D01*
X56824745Y2547855D01*
X56978355Y2672245D01*
X56978644Y2672601D01*
X57050079Y2760818D01*
X57108493Y2801171D01*
X57179450Y2803537D01*
X57240422Y2767165D01*
X57245921Y2760818D01*
X57317642Y2672247D01*
X57380520Y2621331D01*
X57471255Y2547855D01*
X57647371Y2458119D01*
X57838294Y2406961D01*
X57901005Y2402026D01*
X57920389Y2400500D01*
X57920392Y2400500D01*
X58915611Y2400500D01*
X58933579Y2401915D01*
X58997706Y2406961D01*
X59188629Y2458119D01*
X59364745Y2547855D01*
X59518355Y2672245D01*
X59518644Y2672601D01*
X59590079Y2760818D01*
X59648493Y2801171D01*
X59719450Y2803537D01*
X59780422Y2767165D01*
X59785921Y2760818D01*
X59857642Y2672247D01*
X59920520Y2621331D01*
X60011255Y2547855D01*
X60187371Y2458119D01*
X60378294Y2406961D01*
X60441006Y2402026D01*
X60460389Y2400500D01*
X60460392Y2400500D01*
X61455611Y2400500D01*
X61473579Y2401915D01*
X61537706Y2406961D01*
X61728629Y2458119D01*
X61904745Y2547855D01*
X62058355Y2672245D01*
X62058644Y2672601D01*
X62130079Y2760818D01*
X62188493Y2801171D01*
X62259450Y2803537D01*
X62320422Y2767165D01*
X62325921Y2760818D01*
X62397642Y2672247D01*
X62460520Y2621331D01*
X62551255Y2547855D01*
X62727371Y2458119D01*
X62918294Y2406961D01*
X62981005Y2402026D01*
X63000389Y2400500D01*
X63000392Y2400500D01*
X63995611Y2400500D01*
X64013579Y2401915D01*
X64077706Y2406961D01*
X64268629Y2458119D01*
X64444745Y2547855D01*
X64598355Y2672245D01*
X64722745Y2825855D01*
X64812481Y3001971D01*
X64863639Y3192894D01*
X64870100Y3274992D01*
X64870100Y4575008D01*
X64863639Y4657106D01*
X64812481Y4848029D01*
X64722745Y5024145D01*
X64598355Y5177755D01*
X64444745Y5302145D01*
X64444743Y5302146D01*
X64444742Y5302147D01*
X64268627Y5391882D01*
X64077708Y5443039D01*
X63995611Y5449500D01*
X63995608Y5449500D01*
X63000392Y5449500D01*
X63000389Y5449500D01*
X62918291Y5443039D01*
X62727372Y5391882D01*
X62551257Y5302147D01*
X62551253Y5302145D01*
X62551255Y5302145D01*
X62397645Y5177755D01*
X62325922Y5089183D01*
X62325921Y5089182D01*
X62267507Y5048830D01*
X62196550Y5046464D01*
X62135578Y5082837D01*
X62130079Y5089182D01*
X62058355Y5177755D01*
X61904745Y5302145D01*
X61904743Y5302146D01*
X61904742Y5302147D01*
X61728627Y5391882D01*
X61537708Y5443039D01*
X61455611Y5449500D01*
X61455608Y5449500D01*
X60460392Y5449500D01*
X60460389Y5449500D01*
X60378291Y5443039D01*
X60187372Y5391882D01*
X60011257Y5302147D01*
X60011253Y5302145D01*
X60011255Y5302145D01*
X59857645Y5177755D01*
X59785922Y5089183D01*
X59785921Y5089182D01*
X59727507Y5048830D01*
X59656550Y5046464D01*
X59595578Y5082837D01*
X59590079Y5089182D01*
X59518355Y5177755D01*
X59364745Y5302145D01*
X59364743Y5302146D01*
X59364742Y5302147D01*
X59188627Y5391882D01*
X58997708Y5443039D01*
X58915611Y5449500D01*
X58915608Y5449500D01*
X57920392Y5449500D01*
X57920389Y5449500D01*
X57838291Y5443039D01*
X57647372Y5391882D01*
X57471257Y5302147D01*
X57471253Y5302145D01*
X57471255Y5302145D01*
X57317645Y5177755D01*
X57245922Y5089183D01*
X57245921Y5089182D01*
X57187507Y5048830D01*
X57116550Y5046464D01*
X57055578Y5082837D01*
X57050079Y5089182D01*
X56978355Y5177755D01*
X56824745Y5302145D01*
X56824743Y5302146D01*
X56824742Y5302147D01*
X56648627Y5391882D01*
X56457708Y5443039D01*
X56375611Y5449500D01*
X56375608Y5449500D01*
X55380392Y5449500D01*
X55380389Y5449500D01*
X55298291Y5443039D01*
X55107372Y5391882D01*
X54931257Y5302147D01*
X54931253Y5302145D01*
X54931255Y5302145D01*
X54777645Y5177755D01*
X54705922Y5089183D01*
X54705921Y5089182D01*
X54647507Y5048830D01*
X54576550Y5046464D01*
X54515578Y5082837D01*
X54510079Y5089182D01*
X54438355Y5177755D01*
X54284745Y5302145D01*
X54284743Y5302146D01*
X54284742Y5302147D01*
X54108627Y5391882D01*
X53917708Y5443039D01*
X53835611Y5449500D01*
X53835608Y5449500D01*
X52840392Y5449500D01*
X52840389Y5449500D01*
X52758291Y5443039D01*
X52567372Y5391882D01*
X52391257Y5302147D01*
X52237642Y5177753D01*
X52165919Y5089182D01*
X52107505Y5048830D01*
X52036548Y5046464D01*
X51975576Y5082837D01*
X51970079Y5089182D01*
X51940374Y5125866D01*
X51898357Y5177754D01*
X51807620Y5251231D01*
X51744745Y5302145D01*
X51744743Y5302146D01*
X51744742Y5302147D01*
X51568627Y5391882D01*
X51377708Y5443039D01*
X51295611Y5449500D01*
X51295608Y5449500D01*
X50300392Y5449500D01*
X50300389Y5449500D01*
X50218291Y5443039D01*
X50027372Y5391882D01*
X49851257Y5302147D01*
X49697645Y5177755D01*
X49573253Y5024143D01*
X49483518Y4848028D01*
X49432361Y4657109D01*
X49425900Y4575011D01*
X49425900Y3274989D01*
X47090100Y3274989D01*
X47090100Y3274992D01*
X47090100Y4575008D01*
X47083639Y4657106D01*
X47032481Y4848029D01*
X46942745Y5024145D01*
X46818355Y5177755D01*
X46664745Y5302145D01*
X46664743Y5302146D01*
X46664742Y5302147D01*
X46488627Y5391882D01*
X46297708Y5443039D01*
X46215611Y5449500D01*
X46215608Y5449500D01*
X45220392Y5449500D01*
X45220389Y5449500D01*
X45138291Y5443039D01*
X44947372Y5391882D01*
X44771257Y5302147D01*
X44617644Y5177755D01*
X44545598Y5088785D01*
X44487184Y5048433D01*
X44416227Y5046069D01*
X44355255Y5082441D01*
X44349757Y5088786D01*
X44277999Y5177400D01*
X44124471Y5301724D01*
X44124468Y5301725D01*
X43948447Y5391413D01*
X43757629Y5442543D01*
X43675584Y5449000D01*
X43432000Y5449000D01*
X43432000Y4547117D01*
X43411998Y4478996D01*
X43358342Y4432503D01*
X43288070Y4422399D01*
X43229980Y4430751D01*
X43214334Y4433000D01*
X43141666Y4433000D01*
X43126019Y4430751D01*
X43067930Y4422399D01*
X42997656Y4432504D01*
X42944001Y4478997D01*
X42924000Y4547117D01*
X42924000Y5449000D01*
X42680417Y5448999D01*
X42598374Y5442544D01*
X42407552Y5391413D01*
X42231531Y5301725D01*
X42231528Y5301724D01*
X42078000Y5177400D01*
X42005921Y5088389D01*
X41947506Y5048037D01*
X41876549Y5045671D01*
X41815577Y5082044D01*
X41810079Y5088389D01*
X41737999Y5177400D01*
X41584471Y5301724D01*
X41584468Y5301725D01*
X41408447Y5391413D01*
X41217629Y5442543D01*
X41135584Y5449000D01*
X40892000Y5449000D01*
X40892000Y4547117D01*
X40871998Y4478996D01*
X40818342Y4432503D01*
X40748070Y4422399D01*
X40689980Y4430751D01*
X40674334Y4433000D01*
X40601666Y4433000D01*
X40586019Y4430751D01*
X40527930Y4422399D01*
X40457656Y4432504D01*
X40404001Y4478997D01*
X40384000Y4547117D01*
X40384000Y5449000D01*
X40140417Y5448999D01*
X40058374Y5442544D01*
X39867552Y5391413D01*
X39691531Y5301725D01*
X39691528Y5301724D01*
X39537997Y5177398D01*
X39466241Y5088786D01*
X39407827Y5048434D01*
X39336870Y5046068D01*
X39275898Y5082441D01*
X39270400Y5088786D01*
X39240379Y5125859D01*
X39198355Y5177755D01*
X39044745Y5302145D01*
X39044742Y5302147D01*
X39041431Y5304828D01*
X39001079Y5363242D01*
X38998713Y5434199D01*
X39031629Y5491843D01*
X39065749Y5525962D01*
X39192056Y5706346D01*
X39285120Y5905924D01*
X39342115Y6118629D01*
X39361307Y6338000D01*
X39342115Y6557371D01*
X39285120Y6770076D01*
X39192056Y6969653D01*
X39065749Y7150038D01*
X39059823Y7155964D01*
X39025797Y7218276D01*
X39030862Y7289091D01*
X39067088Y7340870D01*
X39167965Y7427028D01*
X39167969Y7427031D01*
X39298075Y7579366D01*
X39357522Y7618172D01*
X39404039Y7622251D01*
X40025081Y8243294D01*
X40087394Y8277319D01*
X40158209Y8272255D01*
X40215045Y8229708D01*
X40220162Y8222339D01*
X40256239Y8166202D01*
X40364900Y8072048D01*
X40364901Y8072048D01*
X40371711Y8066147D01*
X40369686Y8063811D01*
X40406084Y8021813D01*
X40416195Y7951540D01*
X40386709Y7886957D01*
X40380572Y7880364D01*
X39764107Y7263899D01*
X39764107Y7263898D01*
X39951261Y7149209D01*
X40170562Y7058372D01*
X40401367Y7002961D01*
X40638000Y6984338D01*
X40874632Y7002961D01*
X41105437Y7058372D01*
X41324738Y7149209D01*
X41511891Y7263898D01*
X41511892Y7263898D01*
X40895427Y7880362D01*
X40861402Y7942675D01*
X40866466Y8013490D01*
X40905145Y8065160D01*
X40904289Y8066147D01*
X40908830Y8070083D01*
X40909013Y8070326D01*
X40909510Y8070672D01*
X40911095Y8072047D01*
X40911100Y8072048D01*
X41019761Y8166202D01*
X41055824Y8222319D01*
X41109478Y8268811D01*
X41179752Y8278916D01*
X41244333Y8249424D01*
X41250918Y8243293D01*
X41871102Y7623108D01*
X41871102Y7623109D01*
X41985791Y7810262D01*
X42076628Y8029563D01*
X42125946Y8234989D01*
X49345900Y8234989D01*
X49352361Y8152892D01*
X49403518Y7961973D01*
X49480933Y7810037D01*
X49493255Y7785855D01*
X49617645Y7632245D01*
X49771255Y7507855D01*
X49947371Y7418119D01*
X50138294Y7366961D01*
X50201006Y7362026D01*
X50220389Y7360500D01*
X50220392Y7360500D01*
X51215611Y7360500D01*
X51233579Y7361915D01*
X51297706Y7366961D01*
X51488629Y7418119D01*
X51664745Y7507855D01*
X51818355Y7632245D01*
X51942745Y7785855D01*
X51970352Y7840038D01*
X52019098Y7891651D01*
X52088012Y7908718D01*
X52155214Y7885818D01*
X52194885Y7840037D01*
X52259377Y7713465D01*
X52263255Y7705855D01*
X52387645Y7552245D01*
X52541255Y7427855D01*
X52717371Y7338119D01*
X52908294Y7286961D01*
X52971005Y7282026D01*
X52990389Y7280500D01*
X52990392Y7280500D01*
X53985611Y7280500D01*
X54003579Y7281915D01*
X54067706Y7286961D01*
X54258629Y7338119D01*
X54434745Y7427855D01*
X54588355Y7552245D01*
X54712745Y7705855D01*
X54802481Y7881971D01*
X54802482Y7881975D01*
X54802483Y7881976D01*
X54804849Y7888138D01*
X54807205Y7887234D01*
X54838238Y7938153D01*
X54902096Y7969180D01*
X54972591Y7960757D01*
X55027341Y7915558D01*
X55040055Y7887718D01*
X55041151Y7888138D01*
X55043516Y7881976D01*
X55128159Y7715855D01*
X55133255Y7705855D01*
X55257645Y7552245D01*
X55411255Y7427855D01*
X55587371Y7338119D01*
X55778294Y7286961D01*
X55841006Y7282026D01*
X55860389Y7280500D01*
X55860392Y7280500D01*
X56855611Y7280500D01*
X56873579Y7281915D01*
X56937706Y7286961D01*
X57128629Y7338119D01*
X57304745Y7427855D01*
X57458355Y7552245D01*
X57582745Y7705855D01*
X57672481Y7881971D01*
X57682632Y7919856D01*
X57719582Y7980478D01*
X57783442Y8011501D01*
X57853937Y8003074D01*
X57908685Y7957872D01*
X57926045Y7919860D01*
X57933517Y7891974D01*
X57991246Y7778676D01*
X58023255Y7715855D01*
X58147645Y7562245D01*
X58301255Y7437855D01*
X58477371Y7348119D01*
X58668294Y7296961D01*
X58731005Y7292026D01*
X58750389Y7290500D01*
X58750392Y7290500D01*
X59745611Y7290500D01*
X59763579Y7291915D01*
X59827706Y7296961D01*
X60018629Y7348119D01*
X60194745Y7437855D01*
X60348355Y7562245D01*
X60472745Y7715855D01*
X60562481Y7891971D01*
X60613639Y8082894D01*
X60620100Y8164992D01*
X60620100Y9465008D01*
X60613639Y9547106D01*
X60562481Y9738029D01*
X60472745Y9914145D01*
X60398599Y10005709D01*
X60371275Y10071233D01*
X60383715Y10141132D01*
X60398596Y10164289D01*
X60472745Y10255855D01*
X60562481Y10431971D01*
X60613639Y10622894D01*
X60620100Y10704992D01*
X60620100Y12005008D01*
X60613639Y12087106D01*
X60562481Y12278029D01*
X60472745Y12454145D01*
X60348355Y12607755D01*
X60194745Y12732145D01*
X60194743Y12732146D01*
X60194742Y12732147D01*
X60018627Y12821882D01*
X59827708Y12873039D01*
X59745611Y12879500D01*
X59745608Y12879500D01*
X58750392Y12879500D01*
X58750389Y12879500D01*
X58668291Y12873039D01*
X58477372Y12821882D01*
X58301257Y12732147D01*
X58147645Y12607755D01*
X58023253Y12454143D01*
X57933516Y12278025D01*
X57923366Y12240143D01*
X57886414Y12179520D01*
X57822553Y12148499D01*
X57752059Y12156929D01*
X57697312Y12202132D01*
X57679953Y12240144D01*
X57672481Y12268028D01*
X57672481Y12268029D01*
X57582745Y12444145D01*
X57458355Y12597755D01*
X57304745Y12722145D01*
X57304743Y12722146D01*
X57304742Y12722147D01*
X57128627Y12811882D01*
X56937708Y12863039D01*
X56855611Y12869500D01*
X56855608Y12869500D01*
X55860392Y12869500D01*
X55860389Y12869500D01*
X55778291Y12863039D01*
X55587372Y12811882D01*
X55411257Y12722147D01*
X55257645Y12597755D01*
X55133253Y12444143D01*
X55043516Y12268025D01*
X55041151Y12261862D01*
X55038796Y12262766D01*
X55007750Y12211837D01*
X54943888Y12180818D01*
X54873394Y12189251D01*
X54818650Y12234456D01*
X54805942Y12262282D01*
X54804849Y12261862D01*
X54802483Y12268025D01*
X54776464Y12319089D01*
X54712745Y12444145D01*
X54588355Y12597755D01*
X54434745Y12722145D01*
X54434743Y12722146D01*
X54434742Y12722147D01*
X54258627Y12811882D01*
X54067708Y12863039D01*
X53985611Y12869500D01*
X53985608Y12869500D01*
X52990392Y12869500D01*
X52990389Y12869500D01*
X52908291Y12863039D01*
X52717372Y12811882D01*
X52541257Y12722147D01*
X52387645Y12597755D01*
X52263253Y12444143D01*
X52235648Y12389964D01*
X52186899Y12338349D01*
X52117984Y12321283D01*
X52050783Y12344184D01*
X52011114Y12389964D01*
X51942746Y12524143D01*
X51942745Y12524145D01*
X51818355Y12677755D01*
X51664745Y12802145D01*
X51664743Y12802146D01*
X51664742Y12802147D01*
X51488627Y12891882D01*
X51297708Y12943039D01*
X51215611Y12949500D01*
X51215608Y12949500D01*
X50220392Y12949500D01*
X50220389Y12949500D01*
X50138291Y12943039D01*
X49947372Y12891882D01*
X49771257Y12802147D01*
X49617645Y12677755D01*
X49493253Y12524143D01*
X49403518Y12348028D01*
X49352361Y12157109D01*
X49345900Y12075011D01*
X49345900Y10774989D01*
X49352361Y10692892D01*
X49403518Y10501973D01*
X49465648Y10380035D01*
X49493255Y10325855D01*
X49567400Y10234293D01*
X49594725Y10168768D01*
X49582285Y10098870D01*
X49567400Y10075707D01*
X49493253Y9984143D01*
X49403518Y9808028D01*
X49352361Y9617109D01*
X49345900Y9535011D01*
X49345900Y8234989D01*
X42125946Y8234989D01*
X42132039Y8260368D01*
X42150662Y8497000D01*
X42132039Y8733633D01*
X42076628Y8964438D01*
X41985791Y9183739D01*
X41871102Y9370893D01*
X41871101Y9370893D01*
X41250916Y8750708D01*
X41188604Y8716683D01*
X41117788Y8721748D01*
X41060953Y8764295D01*
X41055836Y8771664D01*
X41019761Y8827798D01*
X40911100Y8921952D01*
X40911098Y8921953D01*
X40904289Y8927853D01*
X40906312Y8930189D01*
X40869912Y8972191D01*
X40859802Y9042464D01*
X40889290Y9107048D01*
X40895426Y9113639D01*
X41511891Y9730103D01*
X41324733Y9844794D01*
X41105437Y9935629D01*
X40874632Y9991040D01*
X40638000Y10009663D01*
X40401367Y9991040D01*
X40170562Y9935629D01*
X39951262Y9844792D01*
X39764107Y9730104D01*
X39764107Y9730103D01*
X40380572Y9113639D01*
X40414597Y9051326D01*
X40409533Y8980511D01*
X40370854Y8928843D01*
X40371711Y8927853D01*
X40367164Y8923914D01*
X40366986Y8923675D01*
X40366498Y8923337D01*
X40256238Y8827798D01*
X40220175Y8771682D01*
X40166519Y8725189D01*
X40096245Y8715086D01*
X40031664Y8744579D01*
X40025081Y8750708D01*
X39403582Y9372208D01*
X39338692Y9383199D01*
X39298071Y9414639D01*
X39293890Y9419534D01*
X39262574Y9456201D01*
X39167969Y9566970D01*
X38987419Y9721174D01*
X38987417Y9721175D01*
X38987416Y9721176D01*
X38784963Y9845240D01*
X38775908Y9848991D01*
X38565592Y9936106D01*
X38391805Y9977828D01*
X38334711Y9991535D01*
X38098000Y10010165D01*
X37861289Y9991535D01*
X37630407Y9936106D01*
X37411038Y9845241D01*
X37208582Y9721175D01*
X37208580Y9721174D01*
X37028033Y9566972D01*
X36923811Y9444943D01*
X36864360Y9406134D01*
X36793366Y9405628D01*
X36733367Y9443584D01*
X36732189Y9444943D01*
X36715049Y9465011D01*
X36627969Y9566969D01*
X36627967Y9566971D01*
X36627966Y9566972D01*
X36447419Y9721174D01*
X36447417Y9721175D01*
X36447416Y9721176D01*
X36244963Y9845240D01*
X36235908Y9848991D01*
X36025592Y9936106D01*
X35851805Y9977828D01*
X35794711Y9991535D01*
X35558000Y10010165D01*
X35557999Y10010165D01*
X35321289Y9991535D01*
X35090407Y9936106D01*
X34871038Y9845241D01*
X34668585Y9721177D01*
X34499009Y9576346D01*
X34434219Y9547316D01*
X34364019Y9557921D01*
X34316311Y9596649D01*
X34231261Y9710262D01*
X34114207Y9797888D01*
X34114202Y9797890D01*
X33977204Y9848989D01*
X33977196Y9848991D01*
X33916649Y9855500D01*
X33916638Y9855500D01*
X32119362Y9855500D01*
X32119350Y9855500D01*
X32058803Y9848991D01*
X32058795Y9848989D01*
X31921797Y9797890D01*
X31921792Y9797888D01*
X31804738Y9710262D01*
X31717112Y9593208D01*
X31717110Y9593203D01*
X31666011Y9456205D01*
X31666009Y9456197D01*
X31659500Y9395650D01*
X31659500Y7598351D01*
X31666009Y7537804D01*
X31666011Y7537796D01*
X31717110Y7400798D01*
X31717112Y7400793D01*
X31794056Y7298009D01*
X31818867Y7231489D01*
X31803776Y7162115D01*
X31753574Y7111913D01*
X31693188Y7096500D01*
X27650625Y7096500D01*
X27632366Y7097830D01*
X27608396Y7101341D01*
X27608395Y7101341D01*
X27601957Y7100778D01*
X27555799Y7096740D01*
X27550306Y7096500D01*
X27542001Y7096500D01*
X27509088Y7092653D01*
X27431758Y7085888D01*
X27424573Y7084404D01*
X27424560Y7084467D01*
X27417187Y7082832D01*
X27417202Y7082769D01*
X27410065Y7081078D01*
X27354272Y7060771D01*
X27337118Y7054527D01*
X27313906Y7046835D01*
X27263445Y7030114D01*
X27256796Y7027013D01*
X27256767Y7027074D01*
X27249976Y7023786D01*
X27250006Y7023727D01*
X27243453Y7020437D01*
X27178578Y6977768D01*
X27112535Y6937032D01*
X27106772Y6932475D01*
X27106731Y6932527D01*
X27100888Y6927767D01*
X27100930Y6927717D01*
X27095312Y6923004D01*
X27042020Y6866518D01*
X22071108Y1895605D01*
X22008796Y1861580D01*
X21982013Y1858700D01*
X21084923Y1858700D01*
X21016802Y1878702D01*
X20970309Y1932358D01*
X20960205Y2002632D01*
X20989699Y2067212D01*
X20993273Y2071166D01*
X21042820Y2123683D01*
X21042819Y2123684D01*
X21827407Y2908271D01*
X21841240Y2920225D01*
X21860822Y2934802D01*
X21894952Y2975479D01*
X21898651Y2979515D01*
X21904573Y2985435D01*
X21925245Y3011580D01*
X21975396Y3071347D01*
X21975398Y3071352D01*
X21979430Y3077480D01*
X21979483Y3077445D01*
X21983595Y3083900D01*
X21983541Y3083933D01*
X21987389Y3090173D01*
X21987395Y3090180D01*
X22020374Y3160906D01*
X22055394Y3230634D01*
X22055394Y3230638D01*
X22055396Y3230640D01*
X22057907Y3237537D01*
X22057965Y3237516D01*
X22060477Y3244745D01*
X22060417Y3244765D01*
X22062722Y3251723D01*
X22062725Y3251727D01*
X22078500Y3328132D01*
X22096500Y3404077D01*
X22096500Y3404084D01*
X22097352Y3411365D01*
X22097411Y3411358D01*
X22098189Y3418974D01*
X22098129Y3418979D01*
X22098767Y3426284D01*
X22098769Y3426292D01*
X22096499Y3504292D01*
X22096499Y4212855D01*
X22116501Y4280972D01*
X22145106Y4312281D01*
X22180123Y4339534D01*
X22334130Y4506831D01*
X22458501Y4697195D01*
X22549843Y4905433D01*
X22605664Y5125866D01*
X22624442Y5352480D01*
X22605664Y5579094D01*
X22549843Y5799527D01*
X22458501Y6007765D01*
X22334130Y6198129D01*
X22180123Y6365426D01*
X22000679Y6505092D01*
X22000678Y6505093D01*
X21995838Y6507712D01*
X21988530Y6511667D01*
X21938140Y6561677D01*
X21922787Y6630994D01*
X21947346Y6697607D01*
X21988529Y6733294D01*
X22000679Y6739868D01*
X22180123Y6879534D01*
X22258488Y6964662D01*
X22319340Y7001232D01*
X22390304Y6999099D01*
X22448850Y6958938D01*
X22454402Y6951594D01*
X22474447Y6922967D01*
X22474454Y6922958D01*
X22630157Y6767255D01*
X22630161Y6767252D01*
X22630162Y6767251D01*
X22810546Y6640944D01*
X23010124Y6547880D01*
X23222829Y6490885D01*
X23442200Y6471693D01*
X23661571Y6490885D01*
X23874276Y6547880D01*
X24073854Y6640944D01*
X24254238Y6767251D01*
X24409949Y6922962D01*
X24536256Y7103346D01*
X24629320Y7302924D01*
X24686315Y7515629D01*
X24705507Y7735000D01*
X24686315Y7954371D01*
X24629320Y8167076D01*
X24536256Y8366653D01*
X24409949Y8547038D01*
X24254238Y8702749D01*
X24254237Y8702750D01*
X24250024Y8706285D01*
X24251655Y8708229D01*
X24214027Y8755454D01*
X24204700Y8803028D01*
X24204700Y9094173D01*
X24224702Y9162294D01*
X24241605Y9183268D01*
X29740933Y14682595D01*
X29803245Y14716621D01*
X29830028Y14719500D01*
X32521472Y14719500D01*
X32539732Y14718170D01*
X32541941Y14717847D01*
X32563872Y14714634D01*
X32597305Y14717560D01*
X32616755Y14719260D01*
X32622248Y14719500D01*
X32630614Y14719500D01*
X32663711Y14723369D01*
X32741440Y14730169D01*
X32741446Y14730172D01*
X32748625Y14731653D01*
X32748637Y14731593D01*
X32756114Y14733251D01*
X32756100Y14733310D01*
X32763229Y14735001D01*
X32763242Y14735002D01*
X32836569Y14761691D01*
X32910640Y14786235D01*
X32910643Y14786238D01*
X32917290Y14789336D01*
X32917316Y14789280D01*
X32924203Y14792614D01*
X32924176Y14792669D01*
X32930733Y14795963D01*
X32930735Y14795965D01*
X32930739Y14795966D01*
X32983456Y14830639D01*
X32995939Y14838849D01*
X33026064Y14857431D01*
X33062349Y14879812D01*
X33062351Y14879815D01*
X33068109Y14884366D01*
X33068147Y14884318D01*
X33074074Y14889145D01*
X33074034Y14889193D01*
X33079653Y14893910D01*
X33079662Y14893915D01*
X33103027Y14918682D01*
X33133222Y14950685D01*
X34770134Y16587596D01*
X34832446Y16621621D01*
X34859229Y16624500D01*
X37273258Y16624500D01*
X37341379Y16604498D01*
X37387872Y16550842D01*
X37397976Y16480568D01*
X37396538Y16472530D01*
X37386000Y16369384D01*
X37386000Y15356626D01*
X37396526Y15253596D01*
X37426159Y15164166D01*
X37428599Y15093211D01*
X37395655Y15035444D01*
X37384250Y15024039D01*
X37257944Y14843654D01*
X37164881Y14644080D01*
X37164879Y14644074D01*
X37126756Y14501798D01*
X37107885Y14431371D01*
X37088693Y14212000D01*
X37107885Y13992629D01*
X37123867Y13932983D01*
X37164879Y13779927D01*
X37164881Y13779921D01*
X37202755Y13698700D01*
X37257944Y13580346D01*
X37319145Y13492943D01*
X37384251Y13399962D01*
X37384254Y13399958D01*
X37539957Y13244255D01*
X37539961Y13244252D01*
X37539962Y13244251D01*
X37720346Y13117944D01*
X37919924Y13024880D01*
X38132629Y12967885D01*
X38352000Y12948693D01*
X38571371Y12967885D01*
X38784076Y13024880D01*
X38983654Y13117944D01*
X39164038Y13244251D01*
X39319749Y13399962D01*
X39446056Y13580346D01*
X39517705Y13734000D01*
X42478001Y13734000D01*
X42478001Y13694153D01*
X42488517Y13591198D01*
X42543793Y13424388D01*
X42636051Y13274814D01*
X42636056Y13274808D01*
X42760307Y13150557D01*
X42760313Y13150552D01*
X42909887Y13058294D01*
X43076691Y13003020D01*
X43076703Y13003018D01*
X43179645Y12992501D01*
X43432000Y12992501D01*
X43432000Y13734000D01*
X43940000Y13734000D01*
X43940000Y12992501D01*
X44192347Y12992501D01*
X44295302Y13003018D01*
X44462112Y13058294D01*
X44611686Y13150552D01*
X44611692Y13150557D01*
X44735943Y13274808D01*
X44735948Y13274814D01*
X44828206Y13424388D01*
X44883480Y13591192D01*
X44883482Y13591204D01*
X44893999Y13694145D01*
X44894000Y13694145D01*
X44894000Y13734000D01*
X43940000Y13734000D01*
X43432000Y13734000D01*
X42478001Y13734000D01*
X39517705Y13734000D01*
X39539120Y13779924D01*
X39596115Y13992629D01*
X39615307Y14212000D01*
X39596115Y14431371D01*
X39562165Y14558073D01*
X39563854Y14629049D01*
X39603648Y14687845D01*
X39668912Y14715793D01*
X39723502Y14710289D01*
X39860096Y14665026D01*
X39963125Y14654500D01*
X40550874Y14654501D01*
X40653904Y14665026D01*
X40820829Y14720339D01*
X40970498Y14812656D01*
X41094844Y14937002D01*
X41158773Y15040648D01*
X41211559Y15088125D01*
X41266014Y15100500D01*
X42632468Y15100500D01*
X42700589Y15080498D01*
X42721564Y15063594D01*
X42760002Y15025156D01*
X42760006Y15025154D01*
X42761440Y15024019D01*
X42762172Y15022985D01*
X42765192Y15019965D01*
X42764676Y15019450D01*
X42802471Y14966080D01*
X42805664Y14895155D01*
X42770006Y14833763D01*
X42761455Y14826352D01*
X42760312Y14825449D01*
X42636056Y14701193D01*
X42636051Y14701187D01*
X42543793Y14551613D01*
X42488519Y14384809D01*
X42488517Y14384797D01*
X42478000Y14281856D01*
X42478000Y14242000D01*
X44893999Y14242000D01*
X44893999Y14281848D01*
X44883482Y14384803D01*
X44828206Y14551613D01*
X44735948Y14701187D01*
X44735943Y14701193D01*
X44611688Y14825448D01*
X44610551Y14826347D01*
X44609973Y14827163D01*
X44606497Y14830639D01*
X44607091Y14831234D01*
X44569525Y14884289D01*
X44566337Y14955214D01*
X44602000Y15016604D01*
X44610566Y15024025D01*
X44611987Y15025150D01*
X44611998Y15025156D01*
X44736344Y15149502D01*
X44828661Y15299171D01*
X44883974Y15466096D01*
X44894500Y15569125D01*
X44894499Y16156874D01*
X44883974Y16259904D01*
X44828661Y16426829D01*
X44788917Y16491264D01*
X44770179Y16559743D01*
X44791438Y16627482D01*
X44845945Y16672974D01*
X44856496Y16677006D01*
X44899440Y16691235D01*
X44899443Y16691238D01*
X44899446Y16691238D01*
X44906090Y16694336D01*
X44906116Y16694280D01*
X44913003Y16697614D01*
X44912976Y16697669D01*
X44919533Y16700963D01*
X44919535Y16700965D01*
X44919539Y16700966D01*
X44958002Y16726265D01*
X44984739Y16743849D01*
X45007930Y16758155D01*
X45051149Y16784812D01*
X45051151Y16784815D01*
X45056909Y16789366D01*
X45056947Y16789318D01*
X45062874Y16794145D01*
X45062834Y16794193D01*
X45068453Y16798910D01*
X45068462Y16798915D01*
X45110318Y16843280D01*
X45122023Y16855686D01*
X47332054Y19065718D01*
X49538848Y21272512D01*
X49552687Y21284472D01*
X49572269Y21299049D01*
X49606399Y21339726D01*
X49610098Y21343762D01*
X49616020Y21349682D01*
X49636692Y21375827D01*
X49686843Y21435594D01*
X49686845Y21435599D01*
X49690877Y21441727D01*
X49690930Y21441692D01*
X49695042Y21448147D01*
X49694988Y21448180D01*
X49698836Y21454420D01*
X49698842Y21454427D01*
X49731821Y21525153D01*
X49766841Y21594881D01*
X49766841Y21594885D01*
X49766843Y21594887D01*
X49769354Y21601784D01*
X49769412Y21601763D01*
X49771924Y21608992D01*
X49771864Y21609012D01*
X49774169Y21615970D01*
X49774172Y21615974D01*
X49789947Y21692379D01*
X49807947Y21768324D01*
X49807947Y21768331D01*
X49808799Y21775612D01*
X49808858Y21775605D01*
X49809637Y21783222D01*
X49809576Y21783227D01*
X49810214Y21790530D01*
X49810216Y21790539D01*
X49807947Y21868539D01*
X49807947Y24002389D01*
X50413500Y24002389D01*
X50419961Y23920292D01*
X50471118Y23729373D01*
X50547468Y23579527D01*
X50560855Y23553255D01*
X50685245Y23399645D01*
X50838855Y23275255D01*
X51014971Y23185519D01*
X51205894Y23134361D01*
X51268605Y23129426D01*
X51287989Y23127900D01*
X51287992Y23127900D01*
X52588011Y23127900D01*
X52605979Y23129315D01*
X52670106Y23134361D01*
X52861029Y23185519D01*
X53037145Y23275255D01*
X53128708Y23349401D01*
X53194233Y23376725D01*
X53264132Y23364285D01*
X53287288Y23349404D01*
X53378855Y23275255D01*
X53554971Y23185519D01*
X53745894Y23134361D01*
X53808606Y23129426D01*
X53827989Y23127900D01*
X53827992Y23127900D01*
X55128011Y23127900D01*
X55145979Y23129315D01*
X55210106Y23134361D01*
X55401029Y23185519D01*
X55577145Y23275255D01*
X55730755Y23399645D01*
X55855145Y23553255D01*
X55944881Y23729371D01*
X55996039Y23920294D01*
X56002500Y24002392D01*
X56002500Y24997608D01*
X56002160Y25001924D01*
X56000958Y25017196D01*
X55996039Y25079706D01*
X55944881Y25270629D01*
X55855145Y25446745D01*
X55730755Y25600355D01*
X55577145Y25724745D01*
X55577143Y25724746D01*
X55577142Y25724747D01*
X55401027Y25814482D01*
X55210108Y25865639D01*
X55128011Y25872100D01*
X55128008Y25872100D01*
X53827992Y25872100D01*
X53827989Y25872100D01*
X53745891Y25865639D01*
X53554972Y25814482D01*
X53378858Y25724747D01*
X53378856Y25724746D01*
X53378855Y25724745D01*
X53344166Y25696655D01*
X53287292Y25650600D01*
X53221764Y25623276D01*
X53151866Y25635716D01*
X53128707Y25650600D01*
X53037145Y25724745D01*
X53037143Y25724746D01*
X53037142Y25724747D01*
X52861027Y25814482D01*
X52670108Y25865639D01*
X52588011Y25872100D01*
X52588008Y25872100D01*
X51287992Y25872100D01*
X51287989Y25872100D01*
X51205891Y25865639D01*
X51014972Y25814482D01*
X50838857Y25724747D01*
X50685245Y25600355D01*
X50560853Y25446743D01*
X50471118Y25270628D01*
X50419961Y25079709D01*
X50413500Y24997611D01*
X50413500Y24002389D01*
X49807947Y24002389D01*
X49807947Y27752389D01*
X50450500Y27752389D01*
X50456961Y27670292D01*
X50508118Y27479373D01*
X50589148Y27320342D01*
X50597855Y27303255D01*
X50722245Y27149645D01*
X50875855Y27025255D01*
X51051971Y26935519D01*
X51242894Y26884361D01*
X51305605Y26879426D01*
X51324989Y26877900D01*
X51324992Y26877900D01*
X52625011Y26877900D01*
X52642979Y26879315D01*
X52707106Y26884361D01*
X52898029Y26935519D01*
X53074145Y27025255D01*
X53165708Y27099401D01*
X53231233Y27126725D01*
X53301132Y27114285D01*
X53324288Y27099404D01*
X53415855Y27025255D01*
X53591971Y26935519D01*
X53782894Y26884361D01*
X53845606Y26879426D01*
X53864989Y26877900D01*
X53864992Y26877900D01*
X55165011Y26877900D01*
X55182979Y26879315D01*
X55247106Y26884361D01*
X55438029Y26935519D01*
X55614145Y27025255D01*
X55767755Y27149645D01*
X55892145Y27303255D01*
X55981881Y27479371D01*
X56033039Y27670294D01*
X56038085Y27734421D01*
X56039500Y27752389D01*
X56039500Y28068952D01*
X63688875Y28068952D01*
X63698418Y28014828D01*
X63698419Y28014828D01*
X63740520Y27979500D01*
X63918727Y27979500D01*
X63986848Y27959498D01*
X64033341Y27905842D01*
X64037656Y27895116D01*
X64039862Y27888810D01*
X64039863Y27888808D01*
X64071703Y27797816D01*
X64095102Y27730946D01*
X64184079Y27589339D01*
X64302338Y27471080D01*
X64443945Y27382103D01*
X64443946Y27382103D01*
X64443949Y27382101D01*
X64601808Y27326863D01*
X64601811Y27326863D01*
X64608115Y27324657D01*
X64665807Y27283279D01*
X64691969Y27217279D01*
X64692500Y27205728D01*
X64692500Y27041686D01*
X64692499Y27041686D01*
X64706450Y27003357D01*
X64706450Y27003356D01*
X64754048Y26975876D01*
X64808172Y26985419D01*
X64843500Y27027520D01*
X64843500Y27205728D01*
X64863502Y27273849D01*
X64917158Y27320342D01*
X64927885Y27324657D01*
X64934188Y27326863D01*
X64934192Y27326863D01*
X65092051Y27382101D01*
X65233661Y27471080D01*
X65351920Y27589339D01*
X65440899Y27730949D01*
X65496137Y27888808D01*
X65496137Y27888810D01*
X65498344Y27895116D01*
X65539723Y27952807D01*
X65605723Y27978970D01*
X65617273Y27979500D01*
X65781314Y27979500D01*
X65819643Y27993451D01*
X65819644Y27993451D01*
X65831986Y28014828D01*
X65847124Y28041048D01*
X65837581Y28095172D01*
X65812104Y28116550D01*
X65795480Y28130500D01*
X65617273Y28130500D01*
X65549152Y28150502D01*
X65502659Y28204158D01*
X65498344Y28214884D01*
X65496137Y28221192D01*
X65440899Y28379051D01*
X65440897Y28379054D01*
X65440897Y28379055D01*
X65351920Y28520662D01*
X65233661Y28638921D01*
X65092053Y28727898D01*
X65092052Y28727899D01*
X65092051Y28727899D01*
X65028891Y28750000D01*
X64927884Y28785345D01*
X64870192Y28826724D01*
X64844030Y28892725D01*
X64843500Y28904274D01*
X64843500Y29068315D01*
X64829549Y29106644D01*
X64829549Y29106645D01*
X64781951Y29134125D01*
X64727827Y29124581D01*
X64692500Y29082481D01*
X64692500Y28904274D01*
X64672498Y28836153D01*
X64618842Y28789660D01*
X64608116Y28785345D01*
X64443946Y28727898D01*
X64443945Y28727898D01*
X64302338Y28638921D01*
X64184079Y28520662D01*
X64095102Y28379055D01*
X64037656Y28214884D01*
X63996277Y28157193D01*
X63930277Y28131030D01*
X63918727Y28130500D01*
X63754685Y28130500D01*
X63716356Y28116550D01*
X63716355Y28116550D01*
X63688875Y28068952D01*
X56039500Y28068952D01*
X56039500Y28747611D01*
X56036530Y28785345D01*
X56033039Y28829706D01*
X55981881Y29020629D01*
X55892145Y29196745D01*
X55767755Y29350355D01*
X55614145Y29474745D01*
X55614143Y29474746D01*
X55614142Y29474747D01*
X55438027Y29564482D01*
X55247108Y29615639D01*
X55165011Y29622100D01*
X55165008Y29622100D01*
X53864992Y29622100D01*
X53864989Y29622100D01*
X53782891Y29615639D01*
X53591972Y29564482D01*
X53415857Y29474747D01*
X53415853Y29474745D01*
X53415855Y29474745D01*
X53324291Y29400600D01*
X53258767Y29373275D01*
X53188868Y29385715D01*
X53165706Y29400601D01*
X53109870Y29445816D01*
X53069518Y29504230D01*
X53067152Y29575187D01*
X53103525Y29636159D01*
X53127438Y29652223D01*
X53126881Y29653188D01*
X53131640Y29655938D01*
X53131654Y29655944D01*
X53312038Y29782251D01*
X53467749Y29937962D01*
X53594056Y30118346D01*
X53687120Y30317924D01*
X53744115Y30530629D01*
X53763307Y30750000D01*
X53744115Y30969371D01*
X53687120Y31182076D01*
X53594056Y31381653D01*
X53467749Y31562038D01*
X53312038Y31717749D01*
X53312037Y31717750D01*
X53312036Y31717751D01*
X53307822Y31721287D01*
X53308574Y31722185D01*
X53267896Y31773084D01*
X53258500Y31820829D01*
X53258500Y33679173D01*
X53278502Y33747294D01*
X53308238Y33778230D01*
X53307828Y33778719D01*
X53312029Y33782246D01*
X53312038Y33782251D01*
X53467749Y33937962D01*
X53594056Y34118346D01*
X53687120Y34317924D01*
X53744115Y34530629D01*
X53763307Y34750000D01*
X53744115Y34969371D01*
X53687120Y35182076D01*
X53594056Y35381653D01*
X53467749Y35562038D01*
X53312038Y35717749D01*
X53310714Y35718676D01*
X53251146Y35760386D01*
X53131654Y35844056D01*
X53054016Y35880259D01*
X52932079Y35937119D01*
X52932073Y35937121D01*
X52828192Y35964956D01*
X52719371Y35994115D01*
X52500000Y36013307D01*
X52499999Y36013307D01*
X52280629Y35994115D01*
X52067926Y35937121D01*
X52067920Y35937119D01*
X51868346Y35844056D01*
X51687965Y35717752D01*
X51687959Y35717747D01*
X51532253Y35562041D01*
X51532248Y35562035D01*
X51405944Y35381654D01*
X51312881Y35182080D01*
X51312879Y35182074D01*
X51272299Y35030629D01*
X51255885Y34969371D01*
X51236693Y34750000D01*
X51255885Y34530629D01*
X51280922Y34437192D01*
X51312879Y34317927D01*
X51312881Y34317921D01*
X51405737Y34118789D01*
X51405944Y34118346D01*
X51515328Y33962130D01*
X51532251Y33937962D01*
X51532254Y33937958D01*
X51687954Y33782258D01*
X51692172Y33778719D01*
X51691416Y33777819D01*
X51732094Y33726942D01*
X51741500Y33679173D01*
X51741500Y31820829D01*
X51721498Y31752708D01*
X51691769Y31721775D01*
X51692178Y31721287D01*
X51687963Y31717751D01*
X51532248Y31562035D01*
X51405944Y31381654D01*
X51312881Y31182080D01*
X51312879Y31182074D01*
X51306497Y31158255D01*
X51255885Y30969371D01*
X51236693Y30750000D01*
X51255885Y30530629D01*
X51257163Y30525859D01*
X51312879Y30317927D01*
X51312881Y30317921D01*
X51373550Y30187816D01*
X51405944Y30118346D01*
X51497416Y29987711D01*
X51532251Y29937962D01*
X51532254Y29937958D01*
X51633017Y29837195D01*
X51667043Y29774883D01*
X51661978Y29704068D01*
X51619431Y29647232D01*
X51552911Y29622421D01*
X51543922Y29622100D01*
X51324989Y29622100D01*
X51242891Y29615639D01*
X51051972Y29564482D01*
X50875857Y29474747D01*
X50722245Y29350355D01*
X50597853Y29196743D01*
X50508118Y29020628D01*
X50456961Y28829709D01*
X50450500Y28747611D01*
X50450500Y27752389D01*
X49807947Y27752389D01*
X49807947Y35389818D01*
X49809277Y35408078D01*
X49812382Y35429278D01*
X49812814Y35432225D01*
X49808186Y35485113D01*
X49807947Y35490600D01*
X49807947Y35498968D01*
X49804080Y35532050D01*
X49797279Y35609786D01*
X49795794Y35616978D01*
X49795854Y35616991D01*
X49794197Y35624468D01*
X49794138Y35624453D01*
X49792447Y35631587D01*
X49792445Y35631592D01*
X49792445Y35631595D01*
X49765756Y35704923D01*
X49751578Y35747708D01*
X49745662Y35798316D01*
X49747046Y35814143D01*
X49772909Y35880259D01*
X49830412Y35921899D01*
X49901299Y35925840D01*
X49935568Y35912279D01*
X49938741Y35910448D01*
X49938746Y35910444D01*
X50138324Y35817380D01*
X50351029Y35760385D01*
X50570400Y35741193D01*
X50789771Y35760385D01*
X51002476Y35817380D01*
X51202054Y35910444D01*
X51382438Y36036751D01*
X51538149Y36192462D01*
X51664456Y36372846D01*
X51757520Y36572424D01*
X51814515Y36785129D01*
X51833707Y37004500D01*
X51814515Y37223871D01*
X51769547Y37391692D01*
X51771237Y37462665D01*
X51811031Y37521461D01*
X51876295Y37549409D01*
X51891254Y37550300D01*
X53586072Y37550300D01*
X53604332Y37548970D01*
X53606541Y37548647D01*
X53628472Y37545434D01*
X53661905Y37548360D01*
X53681355Y37550060D01*
X53686848Y37550300D01*
X53695214Y37550300D01*
X53728311Y37554169D01*
X53806040Y37560969D01*
X53806046Y37560972D01*
X53813225Y37562453D01*
X53813237Y37562393D01*
X53820714Y37564051D01*
X53820700Y37564110D01*
X53827829Y37565801D01*
X53827842Y37565802D01*
X53901169Y37592491D01*
X53975240Y37617035D01*
X53975243Y37617038D01*
X53981890Y37620136D01*
X53981916Y37620080D01*
X53988803Y37623414D01*
X53988776Y37623469D01*
X53995333Y37626763D01*
X53995335Y37626765D01*
X53995339Y37626766D01*
X54033802Y37652065D01*
X54060539Y37669649D01*
X54088864Y37687121D01*
X54126949Y37710612D01*
X54126951Y37710615D01*
X54132709Y37715166D01*
X54132747Y37715118D01*
X54138674Y37719945D01*
X54138634Y37719993D01*
X54144253Y37724710D01*
X54144262Y37724715D01*
X54170570Y37752600D01*
X54197823Y37781486D01*
X60889933Y44473595D01*
X60952245Y44507621D01*
X60979028Y44510500D01*
X61497611Y44510500D01*
X61515579Y44511915D01*
X61579706Y44516961D01*
X61770629Y44568119D01*
X61946745Y44657855D01*
X62100355Y44782245D01*
X62224745Y44935855D01*
X62314481Y45111971D01*
X62365639Y45302894D01*
X62372100Y45384992D01*
X62372100Y46685008D01*
X62365639Y46767106D01*
X62314481Y46958029D01*
X62224745Y47134145D01*
X62150599Y47225708D01*
X62123275Y47291235D01*
X62135715Y47361133D01*
X62150595Y47384287D01*
X62224745Y47475855D01*
X62314481Y47651971D01*
X62365639Y47842894D01*
X62372100Y47924992D01*
X62372100Y49225008D01*
X62365639Y49307106D01*
X62314481Y49498029D01*
X62224745Y49674145D01*
X62100355Y49827755D01*
X61946745Y49952145D01*
X61946743Y49952146D01*
X61946742Y49952147D01*
X61770627Y50041882D01*
X61579708Y50093039D01*
X61497611Y50099500D01*
X61497608Y50099500D01*
X60502392Y50099500D01*
X60502389Y50099500D01*
X60420291Y50093039D01*
X60229372Y50041882D01*
X60053257Y49952147D01*
X59899645Y49827755D01*
X59775253Y49674143D01*
X59685518Y49498028D01*
X59634361Y49307109D01*
X59627900Y49225011D01*
X59627900Y47924989D01*
X59634361Y47842892D01*
X59685518Y47651973D01*
X59765062Y47495858D01*
X59775255Y47475855D01*
X59849400Y47384292D01*
X59876725Y47318767D01*
X59864285Y47248868D01*
X59849403Y47225712D01*
X59814067Y47182074D01*
X59775253Y47134143D01*
X59685518Y46958028D01*
X59634361Y46767109D01*
X59627900Y46685011D01*
X59627900Y45420429D01*
X59607898Y45352308D01*
X59590999Y45331339D01*
X59436303Y45176642D01*
X59284564Y45024903D01*
X59222252Y44990878D01*
X59151436Y44995943D01*
X59094601Y45038490D01*
X59069790Y45105010D01*
X59073761Y45146607D01*
X59115639Y45302894D01*
X59122100Y45384992D01*
X59122100Y46685008D01*
X59115639Y46767106D01*
X59064481Y46958029D01*
X58974745Y47134145D01*
X58900599Y47225709D01*
X58873275Y47291233D01*
X58885715Y47361132D01*
X58900596Y47384289D01*
X58974745Y47475855D01*
X59064481Y47651971D01*
X59115639Y47842894D01*
X59122100Y47924992D01*
X59122100Y49225008D01*
X59115639Y49307106D01*
X59064481Y49498029D01*
X58974745Y49674145D01*
X58850355Y49827755D01*
X58696745Y49952145D01*
X58696743Y49952146D01*
X58696742Y49952147D01*
X58520627Y50041882D01*
X58329708Y50093039D01*
X58247611Y50099500D01*
X58247608Y50099500D01*
X57252392Y50099500D01*
X57252389Y50099500D01*
X57170291Y50093039D01*
X56979372Y50041882D01*
X56803257Y49952147D01*
X56649645Y49827755D01*
X56525253Y49674143D01*
X56435518Y49498028D01*
X56384361Y49307109D01*
X56377900Y49225011D01*
X56377900Y47924989D01*
X56384361Y47842892D01*
X56435518Y47651973D01*
X56515062Y47495858D01*
X56525255Y47475855D01*
X56599400Y47384293D01*
X56626725Y47318768D01*
X56614285Y47248870D01*
X56599400Y47225707D01*
X56525253Y47134143D01*
X56435518Y46958028D01*
X56384361Y46767109D01*
X56377900Y46685011D01*
X56377900Y45384989D01*
X56384361Y45302892D01*
X56435518Y45111971D01*
X56441929Y45099389D01*
X56455031Y45029611D01*
X56428328Y44963828D01*
X56418755Y44953095D01*
X51390667Y39925005D01*
X51328355Y39890980D01*
X51301572Y39888100D01*
X50425547Y39888100D01*
X50357426Y39908102D01*
X50310933Y39961758D01*
X50300829Y40032032D01*
X50309959Y40062674D01*
X50309738Y40062754D01*
X50311094Y40066483D01*
X50311355Y40067355D01*
X50311617Y40067918D01*
X50311620Y40067924D01*
X50368615Y40280629D01*
X50368616Y40280636D01*
X50369571Y40286050D01*
X50372031Y40285617D01*
X50393974Y40341904D01*
X50451430Y40383611D01*
X50522312Y40387633D01*
X50526293Y40386636D01*
X50545397Y40381517D01*
X50764768Y40362325D01*
X50984139Y40381517D01*
X51196844Y40438512D01*
X51396422Y40531576D01*
X51576806Y40657883D01*
X51732517Y40813594D01*
X51858824Y40993978D01*
X51951888Y41193556D01*
X52008883Y41406261D01*
X52028075Y41625632D01*
X52008883Y41845003D01*
X51951888Y42057708D01*
X51858824Y42257285D01*
X51747428Y42416374D01*
X51724741Y42483647D01*
X51742026Y42552507D01*
X51761540Y42577731D01*
X53707407Y44523598D01*
X53769717Y44557621D01*
X53796500Y44560500D01*
X54595611Y44560500D01*
X54613579Y44561915D01*
X54677706Y44566961D01*
X54868629Y44618119D01*
X55044745Y44707855D01*
X55198355Y44832245D01*
X55322745Y44985855D01*
X55412481Y45161971D01*
X55463639Y45352894D01*
X55470100Y45434992D01*
X55470100Y46735008D01*
X55468920Y46749996D01*
X55466000Y46787106D01*
X55463639Y46817106D01*
X55412481Y47008029D01*
X55322745Y47184145D01*
X55248599Y47275709D01*
X55221275Y47341233D01*
X55233715Y47411132D01*
X55248596Y47434289D01*
X55322745Y47525855D01*
X55412481Y47701971D01*
X55463639Y47892894D01*
X55470100Y47974992D01*
X55470100Y49275008D01*
X55463639Y49357106D01*
X55412481Y49548029D01*
X55322745Y49724145D01*
X55198355Y49877755D01*
X55044745Y50002145D01*
X55044743Y50002146D01*
X55044742Y50002147D01*
X54868627Y50091882D01*
X54677708Y50143039D01*
X54595611Y50149500D01*
X54595608Y50149500D01*
X53600392Y50149500D01*
X53600389Y50149500D01*
X53518291Y50143039D01*
X53327372Y50091882D01*
X53151257Y50002147D01*
X52997645Y49877755D01*
X52873252Y49724141D01*
X52873249Y49724137D01*
X52785170Y49551273D01*
X52736422Y49499658D01*
X52667507Y49482592D01*
X52600306Y49505493D01*
X52560638Y49551272D01*
X52482745Y49704145D01*
X52358355Y49857755D01*
X52204745Y49982145D01*
X52204743Y49982146D01*
X52204742Y49982147D01*
X52028627Y50071882D01*
X51837708Y50123039D01*
X51755611Y50129500D01*
X51755608Y50129500D01*
X50760392Y50129500D01*
X50760389Y50129500D01*
X50678291Y50123039D01*
X50487372Y50071882D01*
X50311257Y49982147D01*
X50157645Y49857755D01*
X50033253Y49704143D01*
X49970267Y49580525D01*
X49921518Y49528910D01*
X49852604Y49511844D01*
X49785402Y49534745D01*
X49745733Y49580525D01*
X49682746Y49704143D01*
X49682745Y49704145D01*
X49558355Y49857755D01*
X49404745Y49982145D01*
X49404743Y49982146D01*
X49404742Y49982147D01*
X49228627Y50071882D01*
X49037708Y50123039D01*
X48955611Y50129500D01*
X48955608Y50129500D01*
X47960392Y50129500D01*
X47960389Y50129500D01*
X47878291Y50123039D01*
X47687372Y50071882D01*
X47511257Y49982147D01*
X47357645Y49857755D01*
X47233253Y49704143D01*
X47143518Y49528028D01*
X47092361Y49337109D01*
X47085900Y49255011D01*
X47085900Y47954989D01*
X47092361Y47872892D01*
X47143518Y47681973D01*
X47228159Y47515855D01*
X47233255Y47505855D01*
X47307400Y47414292D01*
X47334725Y47348767D01*
X47322285Y47278868D01*
X47307403Y47255712D01*
X47258813Y47195707D01*
X47233253Y47164143D01*
X47143518Y46988028D01*
X47092361Y46797109D01*
X47085900Y46715011D01*
X47085900Y45414989D01*
X47092361Y45332892D01*
X47143518Y45141973D01*
X47228159Y44975855D01*
X47233255Y44965855D01*
X47357645Y44812245D01*
X47511255Y44687855D01*
X47525168Y44680766D01*
X47529148Y44678738D01*
X47580762Y44629989D01*
X47597827Y44561074D01*
X47574925Y44493872D01*
X47561038Y44477377D01*
X43883067Y40799405D01*
X43820755Y40765379D01*
X43793972Y40762500D01*
X43513027Y40762500D01*
X43444906Y40782502D01*
X43398413Y40836158D01*
X43388309Y40906432D01*
X43417803Y40971012D01*
X43423932Y40977595D01*
X44751666Y42305329D01*
X46084401Y43638065D01*
X46098240Y43650025D01*
X46117822Y43664602D01*
X46151952Y43705279D01*
X46155651Y43709315D01*
X46161573Y43715235D01*
X46182245Y43741380D01*
X46232396Y43801147D01*
X46232398Y43801152D01*
X46236430Y43807280D01*
X46236483Y43807245D01*
X46240595Y43813700D01*
X46240541Y43813733D01*
X46244389Y43819973D01*
X46244395Y43819980D01*
X46277374Y43890706D01*
X46312394Y43960434D01*
X46312394Y43960438D01*
X46312396Y43960440D01*
X46314907Y43967337D01*
X46314965Y43967316D01*
X46317477Y43974545D01*
X46317417Y43974565D01*
X46319722Y43981523D01*
X46319725Y43981527D01*
X46323437Y43999502D01*
X46335501Y44057935D01*
X46335500Y44057936D01*
X46353500Y44133877D01*
X46353500Y44133884D01*
X46354352Y44141166D01*
X46354412Y44141159D01*
X46355189Y44148771D01*
X46355129Y44148776D01*
X46355767Y44156084D01*
X46355769Y44156091D01*
X46353500Y44234076D01*
X46353500Y45625412D01*
X46352863Y45630858D01*
X46337998Y45758042D01*
X46337997Y45758044D01*
X46329186Y45782251D01*
X46277034Y45925539D01*
X46277032Y45925543D01*
X46179088Y46074459D01*
X46179085Y46074462D01*
X46161632Y46090929D01*
X46125810Y46152226D01*
X46122100Y46182577D01*
X46122100Y46685011D01*
X46118165Y46735008D01*
X46115639Y46767106D01*
X46064481Y46958029D01*
X45974745Y47134145D01*
X45900599Y47225709D01*
X45873275Y47291233D01*
X45885715Y47361132D01*
X45900596Y47384289D01*
X45974745Y47475855D01*
X46064481Y47651971D01*
X46115639Y47842894D01*
X46122100Y47924992D01*
X46122100Y49225008D01*
X46115639Y49307106D01*
X46064481Y49498029D01*
X45974745Y49674145D01*
X45850355Y49827755D01*
X45696745Y49952145D01*
X45696743Y49952146D01*
X45696742Y49952147D01*
X45520627Y50041882D01*
X45329708Y50093039D01*
X45247611Y50099500D01*
X45247608Y50099500D01*
X44252392Y50099500D01*
X44252389Y50099500D01*
X44170291Y50093039D01*
X43979372Y50041882D01*
X43803257Y49952147D01*
X43649645Y49827755D01*
X43525253Y49674143D01*
X43435518Y49498028D01*
X43384361Y49307109D01*
X43377900Y49225011D01*
X43377900Y47924989D01*
X43384361Y47842892D01*
X43435518Y47651973D01*
X43515062Y47495858D01*
X43525255Y47475855D01*
X43599400Y47384292D01*
X43626725Y47318767D01*
X43614285Y47248868D01*
X43599403Y47225712D01*
X43564067Y47182074D01*
X43525253Y47134143D01*
X43435518Y46958028D01*
X43384361Y46767109D01*
X43377900Y46685011D01*
X43377900Y45384989D01*
X43384361Y45302892D01*
X43435518Y45111973D01*
X43516470Y44953095D01*
X43525255Y44935855D01*
X43649645Y44782245D01*
X43803255Y44657855D01*
X43979371Y44568119D01*
X44170294Y44516961D01*
X44233005Y44512026D01*
X44252389Y44510500D01*
X44252392Y44510500D01*
X44495972Y44510500D01*
X44564093Y44490498D01*
X44610586Y44436842D01*
X44620690Y44366568D01*
X44591196Y44301988D01*
X44585067Y44295405D01*
X41901867Y41612205D01*
X41839555Y41578179D01*
X41812772Y41575300D01*
X40388827Y41575300D01*
X40320706Y41595302D01*
X40274213Y41648958D01*
X40264109Y41719232D01*
X40293603Y41783812D01*
X40299717Y41790381D01*
X40743407Y42234071D01*
X40757240Y42246025D01*
X40776822Y42260602D01*
X40810952Y42301279D01*
X40814651Y42305315D01*
X40820573Y42311235D01*
X40841245Y42337380D01*
X40891396Y42397147D01*
X40891398Y42397152D01*
X40895430Y42403280D01*
X40895483Y42403245D01*
X40899595Y42409700D01*
X40899541Y42409733D01*
X40903390Y42415975D01*
X40903395Y42415980D01*
X40903579Y42416373D01*
X40936377Y42486712D01*
X40959138Y42532032D01*
X40971394Y42556434D01*
X40971394Y42556436D01*
X40971396Y42556439D01*
X40973908Y42563339D01*
X40973966Y42563318D01*
X40976475Y42570538D01*
X40976416Y42570557D01*
X40978722Y42577522D01*
X40978725Y42577526D01*
X40994502Y42653939D01*
X41012500Y42729877D01*
X41012500Y42729884D01*
X41013352Y42737166D01*
X41013412Y42737159D01*
X41014190Y42744774D01*
X41014129Y42744779D01*
X41014767Y42752083D01*
X41014769Y42752091D01*
X41012500Y42830076D01*
X41012500Y44456765D01*
X41032502Y44524886D01*
X41081296Y44569031D01*
X41196745Y44627855D01*
X41350355Y44752245D01*
X41474745Y44905855D01*
X41564481Y45081971D01*
X41615639Y45272894D01*
X41622100Y45354992D01*
X41622100Y46655008D01*
X41615639Y46737106D01*
X41564481Y46928029D01*
X41474745Y47104145D01*
X41400599Y47195708D01*
X41373275Y47261235D01*
X41385715Y47331133D01*
X41400595Y47354287D01*
X41474745Y47445855D01*
X41564481Y47621971D01*
X41615639Y47812894D01*
X41622100Y47894992D01*
X41622100Y49195008D01*
X41615639Y49277106D01*
X41564481Y49468029D01*
X41474745Y49644145D01*
X41350355Y49797755D01*
X41196745Y49922145D01*
X41196743Y49922146D01*
X41196742Y49922147D01*
X41020627Y50011882D01*
X40829708Y50063039D01*
X40747611Y50069500D01*
X40747608Y50069500D01*
X39752392Y50069500D01*
X39752389Y50069500D01*
X39670291Y50063039D01*
X39479372Y50011882D01*
X39303257Y49922147D01*
X39149645Y49797755D01*
X39025253Y49644143D01*
X38935518Y49468028D01*
X38884361Y49277109D01*
X38877900Y49195011D01*
X38877900Y47894989D01*
X38884361Y47812892D01*
X38935518Y47621973D01*
X39016974Y47462106D01*
X39025255Y47445855D01*
X39099400Y47354292D01*
X39126725Y47288767D01*
X39114285Y47218868D01*
X39099403Y47195712D01*
X39055528Y47141529D01*
X39025253Y47104143D01*
X38935518Y46928028D01*
X38884361Y46737109D01*
X38877900Y46655011D01*
X38877900Y45354989D01*
X38884361Y45272892D01*
X38935518Y45081973D01*
X39009967Y44935858D01*
X39025255Y44905855D01*
X39149645Y44752245D01*
X39303255Y44627855D01*
X39418703Y44569032D01*
X39470318Y44520284D01*
X39487500Y44456765D01*
X39487500Y43187029D01*
X39467498Y43118908D01*
X39450595Y43097935D01*
X38777665Y42425004D01*
X38715355Y42390980D01*
X38688572Y42388100D01*
X32965627Y42388100D01*
X32897506Y42408102D01*
X32851013Y42461758D01*
X32840909Y42532032D01*
X32870403Y42596612D01*
X32876532Y42603195D01*
X33689332Y43415995D01*
X34836527Y44563191D01*
X34898837Y44597214D01*
X34969652Y44592150D01*
X34975032Y44589784D01*
X34979368Y44588120D01*
X34979370Y44588120D01*
X34979371Y44588119D01*
X35170294Y44536961D01*
X35233005Y44532026D01*
X35252389Y44530500D01*
X35252392Y44530500D01*
X36247611Y44530500D01*
X36265579Y44531915D01*
X36329706Y44536961D01*
X36520629Y44588119D01*
X36696745Y44677855D01*
X36850355Y44802245D01*
X36974745Y44955855D01*
X37064481Y45131971D01*
X37115639Y45322894D01*
X37122100Y45404992D01*
X37122100Y46705008D01*
X37115639Y46787106D01*
X37064481Y46978029D01*
X36974745Y47154145D01*
X36900599Y47245709D01*
X36873275Y47311233D01*
X36885715Y47381132D01*
X36900596Y47404289D01*
X36974745Y47495855D01*
X37064481Y47671971D01*
X37115639Y47862894D01*
X37120685Y47927021D01*
X37122100Y47944989D01*
X37122100Y49245011D01*
X37118952Y49285011D01*
X37115639Y49327106D01*
X37064481Y49518029D01*
X36974745Y49694145D01*
X36850355Y49847755D01*
X36696745Y49972145D01*
X36696743Y49972146D01*
X36696742Y49972147D01*
X36520627Y50061882D01*
X36329708Y50113039D01*
X36247611Y50119500D01*
X36247608Y50119500D01*
X35252392Y50119500D01*
X35252389Y50119500D01*
X35170291Y50113039D01*
X34979372Y50061882D01*
X34803257Y49972147D01*
X34649645Y49847755D01*
X34525253Y49694143D01*
X34435518Y49518028D01*
X34384361Y49327109D01*
X34377900Y49245011D01*
X34377900Y47944989D01*
X34384361Y47862892D01*
X34435518Y47671973D01*
X34520159Y47505855D01*
X34525255Y47495855D01*
X34599400Y47404292D01*
X34626725Y47338767D01*
X34614285Y47268868D01*
X34599403Y47245712D01*
X34558911Y47195707D01*
X34525253Y47154143D01*
X34435518Y46978028D01*
X34384361Y46787109D01*
X34377900Y46705011D01*
X34377900Y46313428D01*
X34357898Y46245307D01*
X34340995Y46224333D01*
X33322264Y45205603D01*
X33259952Y45171577D01*
X33189136Y45176642D01*
X33132301Y45219189D01*
X33107490Y45285709D01*
X33111464Y45327314D01*
X33112541Y45331333D01*
X33115639Y45342894D01*
X33122100Y45424992D01*
X33122100Y46725008D01*
X33115639Y46807106D01*
X33064481Y46998029D01*
X32974745Y47174145D01*
X32900599Y47265709D01*
X32873275Y47331233D01*
X32885715Y47401132D01*
X32900596Y47424289D01*
X32974745Y47515855D01*
X33064481Y47691971D01*
X33115639Y47882894D01*
X33122100Y47964992D01*
X33122100Y49265008D01*
X33115639Y49347106D01*
X33064481Y49538029D01*
X32974745Y49714145D01*
X32850355Y49867755D01*
X32696745Y49992145D01*
X32696743Y49992146D01*
X32696742Y49992147D01*
X32520627Y50081882D01*
X32329708Y50133039D01*
X32247611Y50139500D01*
X32247608Y50139500D01*
X31252392Y50139500D01*
X31252389Y50139500D01*
X31170291Y50133039D01*
X30979372Y50081882D01*
X30803257Y49992147D01*
X30649645Y49867755D01*
X30525253Y49714143D01*
X30435518Y49538028D01*
X30384361Y49347109D01*
X30377900Y49265011D01*
X30377900Y47964989D01*
X30384361Y47882892D01*
X30435518Y47691973D01*
X30520159Y47525855D01*
X30525255Y47515855D01*
X30599400Y47424292D01*
X30626725Y47358767D01*
X30614285Y47288868D01*
X30599403Y47265712D01*
X30583204Y47245706D01*
X30525253Y47174143D01*
X30435518Y46998028D01*
X30384361Y46807109D01*
X30377900Y46725011D01*
X30377900Y45424989D01*
X30384361Y45342893D01*
X30392629Y45312039D01*
X30435519Y45151971D01*
X30435520Y45151968D01*
X30435521Y45151967D01*
X30440578Y45142042D01*
X30453682Y45072265D01*
X30426981Y45006481D01*
X30417407Y44995745D01*
X29472265Y44050604D01*
X29409955Y44016580D01*
X29383172Y44013700D01*
X26890501Y44013700D01*
X26822380Y44033702D01*
X26775887Y44087358D01*
X26765783Y44157632D01*
X26768791Y44172298D01*
X26813762Y44340129D01*
X26824182Y44459243D01*
X26850044Y44525357D01*
X26907547Y44566997D01*
X26959588Y44573869D01*
X26993724Y44571183D01*
X27002390Y44570500D01*
X27002392Y44570500D01*
X27997611Y44570500D01*
X28015579Y44571915D01*
X28079706Y44576961D01*
X28270629Y44628119D01*
X28446745Y44717855D01*
X28600355Y44842245D01*
X28724745Y44995855D01*
X28814481Y45171971D01*
X28865639Y45362894D01*
X28871632Y45439046D01*
X28872100Y45444989D01*
X28872100Y46745011D01*
X28868787Y46787106D01*
X28865639Y46827106D01*
X28814481Y47018029D01*
X28724745Y47194145D01*
X28650599Y47285709D01*
X28623275Y47351233D01*
X28635715Y47421132D01*
X28650596Y47444289D01*
X28724745Y47535855D01*
X28814481Y47711971D01*
X28865639Y47902894D01*
X28872100Y47984992D01*
X28872100Y49285008D01*
X28865639Y49367106D01*
X28814481Y49558029D01*
X28724745Y49734145D01*
X28600355Y49887755D01*
X28446745Y50012145D01*
X28446743Y50012146D01*
X28446742Y50012147D01*
X28270627Y50101882D01*
X28079708Y50153039D01*
X27997611Y50159500D01*
X27997608Y50159500D01*
X27002392Y50159500D01*
X27002389Y50159500D01*
X26920291Y50153039D01*
X26729372Y50101882D01*
X26553257Y50012147D01*
X26399645Y49887755D01*
X26275253Y49734143D01*
X26185518Y49558028D01*
X26134361Y49367109D01*
X26127900Y49285011D01*
X26127900Y47984989D01*
X26134361Y47902892D01*
X26185518Y47711973D01*
X26261915Y47562035D01*
X26275255Y47535855D01*
X26349400Y47444292D01*
X26376725Y47378767D01*
X26364285Y47308868D01*
X26349403Y47285712D01*
X26317008Y47245706D01*
X26275253Y47194143D01*
X26185518Y47018028D01*
X26134361Y46827109D01*
X26127900Y46745011D01*
X26127900Y45877018D01*
X26107898Y45808897D01*
X26054242Y45762404D01*
X25983968Y45752300D01*
X25969289Y45755311D01*
X25868748Y45782251D01*
X25789018Y45803615D01*
X25569647Y45822807D01*
X25350276Y45803615D01*
X25137573Y45746621D01*
X25137567Y45746619D01*
X24937993Y45653556D01*
X24757612Y45527252D01*
X24757606Y45527247D01*
X24601900Y45371541D01*
X24601895Y45371535D01*
X24475589Y45191152D01*
X24424343Y45081251D01*
X24377426Y45027965D01*
X24310148Y45008500D01*
X22231754Y45008500D01*
X22163633Y45028502D01*
X22117559Y45081251D01*
X22094058Y45131648D01*
X22094056Y45131652D01*
X22094056Y45131653D01*
X22094051Y45131659D01*
X22094027Y45131703D01*
X22094020Y45131731D01*
X22091731Y45136640D01*
X22092717Y45137101D01*
X22077289Y45200698D01*
X22100509Y45267790D01*
X22145942Y45306970D01*
X22196745Y45332855D01*
X22350355Y45457245D01*
X22474745Y45610855D01*
X22564481Y45786971D01*
X22615639Y45977894D01*
X22622100Y46059992D01*
X22622100Y47360008D01*
X22622011Y47361133D01*
X22620189Y47384296D01*
X22615639Y47442106D01*
X22564481Y47633029D01*
X22474745Y47809145D01*
X22400599Y47900709D01*
X22373275Y47966233D01*
X22385715Y48036132D01*
X22400596Y48059289D01*
X22474745Y48150855D01*
X22564481Y48326971D01*
X22615639Y48517894D01*
X22622100Y48599992D01*
X22622100Y49900008D01*
X22615639Y49982106D01*
X22564481Y50173029D01*
X22474745Y50349145D01*
X22350355Y50502755D01*
X22242995Y50589693D01*
X22202645Y50648104D01*
X22200279Y50719061D01*
X22236651Y50780033D01*
X22265091Y50799879D01*
X22280741Y50807853D01*
X22280740Y50807853D01*
X22280745Y50807855D01*
X22434355Y50932245D01*
X22434644Y50932601D01*
X22506079Y51020818D01*
X22564493Y51061171D01*
X22635450Y51063537D01*
X22696422Y51027165D01*
X22701921Y51020818D01*
X22773642Y50932247D01*
X22836520Y50881331D01*
X22927255Y50807855D01*
X23103371Y50718119D01*
X23294294Y50666961D01*
X23357005Y50662026D01*
X23376389Y50660500D01*
X23376392Y50660500D01*
X24371611Y50660500D01*
X24389579Y50661915D01*
X24453706Y50666961D01*
X24644629Y50718119D01*
X24820745Y50807855D01*
X24974355Y50932245D01*
X25046402Y51021217D01*
X25104814Y51061567D01*
X25175771Y51063933D01*
X25236743Y51027561D01*
X25242242Y51021215D01*
X25314000Y50932601D01*
X25467528Y50808277D01*
X25467531Y50808276D01*
X25643552Y50718588D01*
X25834370Y50667458D01*
X25916415Y50661001D01*
X26160000Y50661001D01*
X26160000Y51562884D01*
X26180002Y51631005D01*
X26233658Y51677498D01*
X26303929Y51687602D01*
X26303932Y51687602D01*
X26303932Y51687601D01*
X26351258Y51680797D01*
X26377666Y51677000D01*
X26450334Y51677000D01*
X26489645Y51682653D01*
X26524068Y51687601D01*
X26594342Y51677498D01*
X26647998Y51631005D01*
X26668000Y51562884D01*
X26668000Y50661001D01*
X26911583Y50661001D01*
X26993625Y50667457D01*
X27184447Y50718588D01*
X27360468Y50808276D01*
X27360471Y50808277D01*
X27514002Y50932602D01*
X27585757Y51021214D01*
X27644170Y51061567D01*
X27715128Y51063933D01*
X27776100Y51027561D01*
X27781599Y51021215D01*
X27785829Y51015991D01*
X27853645Y50932245D01*
X28007255Y50807855D01*
X28183371Y50718119D01*
X28374294Y50666961D01*
X28437005Y50662026D01*
X28456389Y50660500D01*
X28456392Y50660500D01*
X29451611Y50660500D01*
X29469579Y50661915D01*
X29533706Y50666961D01*
X29724629Y50718119D01*
X29900745Y50807855D01*
X30054355Y50932245D01*
X30054644Y50932601D01*
X30126079Y51020818D01*
X30184493Y51061171D01*
X30255450Y51063537D01*
X30316422Y51027165D01*
X30321921Y51020818D01*
X30393642Y50932247D01*
X30456520Y50881331D01*
X30547255Y50807855D01*
X30723371Y50718119D01*
X30914294Y50666961D01*
X30977006Y50662026D01*
X30996389Y50660500D01*
X30996392Y50660500D01*
X31991611Y50660500D01*
X32009579Y50661915D01*
X32073706Y50666961D01*
X32264629Y50718119D01*
X32440745Y50807855D01*
X32594355Y50932245D01*
X32594644Y50932601D01*
X32666079Y51020818D01*
X32724493Y51061171D01*
X32795450Y51063537D01*
X32856422Y51027165D01*
X32861921Y51020818D01*
X32933642Y50932247D01*
X32996520Y50881331D01*
X33087255Y50807855D01*
X33263371Y50718119D01*
X33454294Y50666961D01*
X33517005Y50662026D01*
X33536389Y50660500D01*
X33536392Y50660500D01*
X34531611Y50660500D01*
X34549579Y50661915D01*
X34613706Y50666961D01*
X34804629Y50718119D01*
X34980745Y50807855D01*
X35134355Y50932245D01*
X35134644Y50932601D01*
X35206079Y51020818D01*
X35264493Y51061171D01*
X35335450Y51063537D01*
X35396422Y51027165D01*
X35401921Y51020818D01*
X35473642Y50932247D01*
X35536520Y50881331D01*
X35627255Y50807855D01*
X35803371Y50718119D01*
X35994294Y50666961D01*
X36057006Y50662026D01*
X36076389Y50660500D01*
X36076392Y50660500D01*
X37071611Y50660500D01*
X37089579Y50661915D01*
X37153706Y50666961D01*
X37344629Y50718119D01*
X37520745Y50807855D01*
X37674355Y50932245D01*
X37674644Y50932601D01*
X37746079Y51020818D01*
X37804493Y51061171D01*
X37875450Y51063537D01*
X37936422Y51027165D01*
X37941921Y51020818D01*
X38013642Y50932247D01*
X38076520Y50881331D01*
X38167255Y50807855D01*
X38343371Y50718119D01*
X38534294Y50666961D01*
X38597005Y50662026D01*
X38616389Y50660500D01*
X38616392Y50660500D01*
X39611611Y50660500D01*
X39629579Y50661915D01*
X39693706Y50666961D01*
X39884629Y50718119D01*
X40060745Y50807855D01*
X40214355Y50932245D01*
X40286082Y51020822D01*
X40344491Y51061171D01*
X40415448Y51063537D01*
X40476420Y51027165D01*
X40481915Y51020824D01*
X40553645Y50932245D01*
X40707255Y50807855D01*
X40883371Y50718119D01*
X41074294Y50666961D01*
X41137006Y50662026D01*
X41156389Y50660500D01*
X41156392Y50660500D01*
X42151611Y50660500D01*
X42169579Y50661915D01*
X42233706Y50666961D01*
X42424629Y50718119D01*
X42600745Y50807855D01*
X42754355Y50932245D01*
X42878745Y51085855D01*
X42968481Y51261971D01*
X43019639Y51452894D01*
X43026100Y51534989D01*
X44345900Y51534989D01*
X44352361Y51452892D01*
X44403518Y51261973D01*
X44403519Y51261971D01*
X44493255Y51085855D01*
X44617645Y50932245D01*
X44771255Y50807855D01*
X44947371Y50718119D01*
X45138294Y50666961D01*
X45201006Y50662026D01*
X45220389Y50660500D01*
X45220392Y50660500D01*
X46215611Y50660500D01*
X46233579Y50661915D01*
X46297706Y50666961D01*
X46488629Y50718119D01*
X46664745Y50807855D01*
X46818355Y50932245D01*
X46818644Y50932601D01*
X46890079Y51020818D01*
X46948493Y51061171D01*
X47019450Y51063537D01*
X47080422Y51027165D01*
X47085921Y51020818D01*
X47157642Y50932247D01*
X47220520Y50881331D01*
X47311255Y50807855D01*
X47487371Y50718119D01*
X47678294Y50666961D01*
X47741005Y50662026D01*
X47760389Y50660500D01*
X47760392Y50660500D01*
X48755611Y50660500D01*
X48773579Y50661915D01*
X48837706Y50666961D01*
X49028629Y50718119D01*
X49204745Y50807855D01*
X49358355Y50932245D01*
X49358644Y50932601D01*
X49430079Y51020818D01*
X49488493Y51061171D01*
X49559450Y51063537D01*
X49620422Y51027165D01*
X49625921Y51020818D01*
X49697642Y50932247D01*
X49760520Y50881331D01*
X49851255Y50807855D01*
X50027371Y50718119D01*
X50218294Y50666961D01*
X50281006Y50662026D01*
X50300389Y50660500D01*
X50300392Y50660500D01*
X51295611Y50660500D01*
X51313579Y50661915D01*
X51377706Y50666961D01*
X51568629Y50718119D01*
X51744745Y50807855D01*
X51898355Y50932245D01*
X51898644Y50932601D01*
X51970079Y51020818D01*
X52028493Y51061171D01*
X52099450Y51063537D01*
X52160422Y51027165D01*
X52165921Y51020818D01*
X52237642Y50932247D01*
X52300520Y50881331D01*
X52391255Y50807855D01*
X52567371Y50718119D01*
X52758294Y50666961D01*
X52821005Y50662026D01*
X52840389Y50660500D01*
X52840392Y50660500D01*
X53835611Y50660500D01*
X53853579Y50661915D01*
X53917706Y50666961D01*
X54108629Y50718119D01*
X54284745Y50807855D01*
X54438355Y50932245D01*
X54438644Y50932601D01*
X54510079Y51020818D01*
X54568493Y51061171D01*
X54639450Y51063537D01*
X54700422Y51027165D01*
X54705921Y51020818D01*
X54777642Y50932247D01*
X54840520Y50881331D01*
X54931255Y50807855D01*
X55107371Y50718119D01*
X55298294Y50666961D01*
X55361006Y50662026D01*
X55380389Y50660500D01*
X55380392Y50660500D01*
X56375611Y50660500D01*
X56393579Y50661915D01*
X56457706Y50666961D01*
X56648629Y50718119D01*
X56824745Y50807855D01*
X56978355Y50932245D01*
X56978644Y50932601D01*
X57050079Y51020818D01*
X57108493Y51061171D01*
X57179450Y51063537D01*
X57240422Y51027165D01*
X57245921Y51020818D01*
X57317642Y50932247D01*
X57380520Y50881331D01*
X57471255Y50807855D01*
X57647371Y50718119D01*
X57838294Y50666961D01*
X57901005Y50662026D01*
X57920389Y50660500D01*
X57920392Y50660500D01*
X58915611Y50660500D01*
X58933579Y50661915D01*
X58997706Y50666961D01*
X59188629Y50718119D01*
X59364745Y50807855D01*
X59518355Y50932245D01*
X59518644Y50932601D01*
X59590079Y51020818D01*
X59648493Y51061171D01*
X59719450Y51063537D01*
X59780422Y51027165D01*
X59785921Y51020818D01*
X59857642Y50932247D01*
X59920520Y50881331D01*
X60011255Y50807855D01*
X60187371Y50718119D01*
X60378294Y50666961D01*
X60441006Y50662026D01*
X60460389Y50660500D01*
X60460392Y50660500D01*
X61455611Y50660500D01*
X61473579Y50661915D01*
X61537706Y50666961D01*
X61728629Y50718119D01*
X61904745Y50807855D01*
X62058355Y50932245D01*
X62058644Y50932601D01*
X62130079Y51020818D01*
X62188493Y51061171D01*
X62259450Y51063537D01*
X62320422Y51027165D01*
X62325921Y51020818D01*
X62397642Y50932247D01*
X62460520Y50881331D01*
X62551255Y50807855D01*
X62727371Y50718119D01*
X62918294Y50666961D01*
X62981005Y50662026D01*
X63000389Y50660500D01*
X63000392Y50660500D01*
X63995611Y50660500D01*
X64013579Y50661915D01*
X64077706Y50666961D01*
X64268629Y50718119D01*
X64444745Y50807855D01*
X64598355Y50932245D01*
X64722745Y51085855D01*
X64812481Y51261971D01*
X64863639Y51452894D01*
X64870100Y51534992D01*
X64870100Y52835008D01*
X64863639Y52917106D01*
X64812481Y53108029D01*
X64722745Y53284145D01*
X64598355Y53437755D01*
X64444745Y53562145D01*
X64444743Y53562146D01*
X64444742Y53562147D01*
X64268627Y53651882D01*
X64077708Y53703039D01*
X63995611Y53709500D01*
X63995608Y53709500D01*
X63000392Y53709500D01*
X63000389Y53709500D01*
X62918291Y53703039D01*
X62727372Y53651882D01*
X62551257Y53562147D01*
X62551253Y53562145D01*
X62551255Y53562145D01*
X62397645Y53437755D01*
X62325922Y53349183D01*
X62325921Y53349182D01*
X62267507Y53308830D01*
X62196550Y53306464D01*
X62135578Y53342837D01*
X62130079Y53349182D01*
X62058355Y53437755D01*
X61904745Y53562145D01*
X61904743Y53562146D01*
X61904742Y53562147D01*
X61728627Y53651882D01*
X61537708Y53703039D01*
X61455611Y53709500D01*
X61455608Y53709500D01*
X60460392Y53709500D01*
X60460389Y53709500D01*
X60378291Y53703039D01*
X60187372Y53651882D01*
X60011257Y53562147D01*
X60011253Y53562145D01*
X60011255Y53562145D01*
X59857645Y53437755D01*
X59785922Y53349183D01*
X59785921Y53349182D01*
X59727507Y53308830D01*
X59656550Y53306464D01*
X59595578Y53342837D01*
X59590079Y53349182D01*
X59518355Y53437755D01*
X59364745Y53562145D01*
X59364743Y53562146D01*
X59364742Y53562147D01*
X59188627Y53651882D01*
X58997708Y53703039D01*
X58915611Y53709500D01*
X58915608Y53709500D01*
X57920392Y53709500D01*
X57920389Y53709500D01*
X57838291Y53703039D01*
X57647372Y53651882D01*
X57471257Y53562147D01*
X57471253Y53562145D01*
X57471255Y53562145D01*
X57317645Y53437755D01*
X57245922Y53349183D01*
X57245921Y53349182D01*
X57187507Y53308830D01*
X57116550Y53306464D01*
X57055578Y53342837D01*
X57050079Y53349182D01*
X56978355Y53437755D01*
X56824745Y53562145D01*
X56824743Y53562146D01*
X56824742Y53562147D01*
X56648627Y53651882D01*
X56457708Y53703039D01*
X56375611Y53709500D01*
X56375608Y53709500D01*
X55380392Y53709500D01*
X55380389Y53709500D01*
X55298291Y53703039D01*
X55107372Y53651882D01*
X54931257Y53562147D01*
X54931253Y53562145D01*
X54931255Y53562145D01*
X54777645Y53437755D01*
X54705922Y53349183D01*
X54705921Y53349182D01*
X54647507Y53308830D01*
X54576550Y53306464D01*
X54515578Y53342837D01*
X54510079Y53349182D01*
X54438355Y53437755D01*
X54284745Y53562145D01*
X54284743Y53562146D01*
X54284742Y53562147D01*
X54108627Y53651882D01*
X53917708Y53703039D01*
X53835611Y53709500D01*
X53835608Y53709500D01*
X52840392Y53709500D01*
X52840389Y53709500D01*
X52758291Y53703039D01*
X52567372Y53651882D01*
X52391257Y53562147D01*
X52237642Y53437753D01*
X52165919Y53349182D01*
X52107505Y53308830D01*
X52036548Y53306464D01*
X51975576Y53342837D01*
X51970079Y53349182D01*
X51928684Y53400302D01*
X51898357Y53437754D01*
X51807620Y53511231D01*
X51744745Y53562145D01*
X51744743Y53562146D01*
X51744742Y53562147D01*
X51568627Y53651882D01*
X51377708Y53703039D01*
X51295611Y53709500D01*
X51295608Y53709500D01*
X50300392Y53709500D01*
X50300389Y53709500D01*
X50218291Y53703039D01*
X50027372Y53651882D01*
X49851257Y53562147D01*
X49851253Y53562145D01*
X49851255Y53562145D01*
X49697645Y53437755D01*
X49625922Y53349183D01*
X49625921Y53349182D01*
X49567507Y53308830D01*
X49496550Y53306464D01*
X49435578Y53342837D01*
X49430079Y53349182D01*
X49358355Y53437755D01*
X49204745Y53562145D01*
X49204743Y53562146D01*
X49204742Y53562147D01*
X49028627Y53651882D01*
X48837708Y53703039D01*
X48755611Y53709500D01*
X48755608Y53709500D01*
X47760392Y53709500D01*
X47760389Y53709500D01*
X47678291Y53703039D01*
X47487372Y53651882D01*
X47311257Y53562147D01*
X47311253Y53562145D01*
X47311255Y53562145D01*
X47157645Y53437755D01*
X47085922Y53349183D01*
X47085921Y53349182D01*
X47027507Y53308830D01*
X46956550Y53306464D01*
X46895578Y53342837D01*
X46890079Y53349182D01*
X46818355Y53437755D01*
X46664745Y53562145D01*
X46664743Y53562146D01*
X46664742Y53562147D01*
X46488627Y53651882D01*
X46297708Y53703039D01*
X46215611Y53709500D01*
X46215608Y53709500D01*
X45220392Y53709500D01*
X45220389Y53709500D01*
X45138291Y53703039D01*
X44947372Y53651882D01*
X44771257Y53562147D01*
X44617645Y53437755D01*
X44493253Y53284143D01*
X44403518Y53108028D01*
X44352361Y52917109D01*
X44345900Y52835011D01*
X44345900Y51534989D01*
X43026100Y51534989D01*
X43026100Y51534992D01*
X43026100Y52835008D01*
X43019639Y52917106D01*
X42968481Y53108029D01*
X42878745Y53284145D01*
X42754355Y53437755D01*
X42600745Y53562145D01*
X42600743Y53562146D01*
X42600742Y53562147D01*
X42424627Y53651882D01*
X42233708Y53703039D01*
X42151611Y53709500D01*
X42151608Y53709500D01*
X41156392Y53709500D01*
X41156389Y53709500D01*
X41074291Y53703039D01*
X40883372Y53651882D01*
X40707257Y53562147D01*
X40707253Y53562145D01*
X40707255Y53562145D01*
X40553645Y53437755D01*
X40481922Y53349183D01*
X40481921Y53349182D01*
X40423507Y53308830D01*
X40352550Y53306464D01*
X40291578Y53342837D01*
X40286079Y53349182D01*
X40214355Y53437755D01*
X40060745Y53562145D01*
X40060743Y53562146D01*
X40060742Y53562147D01*
X39884627Y53651882D01*
X39693708Y53703039D01*
X39611611Y53709500D01*
X39611608Y53709500D01*
X38616392Y53709500D01*
X38616389Y53709500D01*
X38534291Y53703039D01*
X38343372Y53651882D01*
X38167257Y53562147D01*
X38167253Y53562145D01*
X38167255Y53562145D01*
X38013645Y53437755D01*
X37941922Y53349183D01*
X37941921Y53349182D01*
X37883507Y53308830D01*
X37812550Y53306464D01*
X37751578Y53342837D01*
X37746079Y53349182D01*
X37674355Y53437755D01*
X37520745Y53562145D01*
X37520743Y53562146D01*
X37520742Y53562147D01*
X37344627Y53651882D01*
X37153708Y53703039D01*
X37071611Y53709500D01*
X37071608Y53709500D01*
X36076392Y53709500D01*
X36076389Y53709500D01*
X35994291Y53703039D01*
X35803372Y53651882D01*
X35627257Y53562147D01*
X35627253Y53562145D01*
X35627255Y53562145D01*
X35473645Y53437755D01*
X35401922Y53349183D01*
X35401921Y53349182D01*
X35343507Y53308830D01*
X35272550Y53306464D01*
X35211578Y53342837D01*
X35206079Y53349182D01*
X35134355Y53437755D01*
X34980745Y53562145D01*
X34980743Y53562146D01*
X34980742Y53562147D01*
X34804627Y53651882D01*
X34613708Y53703039D01*
X34531611Y53709500D01*
X34531608Y53709500D01*
X33536392Y53709500D01*
X33536389Y53709500D01*
X33454291Y53703039D01*
X33263372Y53651882D01*
X33087257Y53562147D01*
X33087253Y53562145D01*
X33087255Y53562145D01*
X32933645Y53437755D01*
X32861922Y53349183D01*
X32861921Y53349182D01*
X32803507Y53308830D01*
X32732550Y53306464D01*
X32671578Y53342837D01*
X32666079Y53349182D01*
X32594355Y53437755D01*
X32440745Y53562145D01*
X32440743Y53562146D01*
X32440742Y53562147D01*
X32264627Y53651882D01*
X32073708Y53703039D01*
X31991611Y53709500D01*
X31991608Y53709500D01*
X30996392Y53709500D01*
X30996389Y53709500D01*
X30914291Y53703039D01*
X30723372Y53651882D01*
X30547257Y53562147D01*
X30547253Y53562145D01*
X30547255Y53562145D01*
X30393645Y53437755D01*
X30321922Y53349183D01*
X30321921Y53349182D01*
X30263507Y53308830D01*
X30192550Y53306464D01*
X30131578Y53342837D01*
X30126079Y53349182D01*
X30054355Y53437755D01*
X29900745Y53562145D01*
X29900743Y53562146D01*
X29900742Y53562147D01*
X29724627Y53651882D01*
X29533708Y53703039D01*
X29451611Y53709500D01*
X29451608Y53709500D01*
X28456392Y53709500D01*
X28456389Y53709500D01*
X28374291Y53703039D01*
X28183372Y53651882D01*
X28007257Y53562147D01*
X27853644Y53437755D01*
X27781598Y53348785D01*
X27723184Y53308433D01*
X27652227Y53306069D01*
X27591255Y53342441D01*
X27585757Y53348786D01*
X27513999Y53437400D01*
X27360471Y53561724D01*
X27360468Y53561725D01*
X27184447Y53651413D01*
X26993629Y53702543D01*
X26911584Y53709000D01*
X26668000Y53709000D01*
X26668000Y52807117D01*
X26647998Y52738996D01*
X26594342Y52692503D01*
X26524070Y52682399D01*
X26465980Y52690751D01*
X26450334Y52693000D01*
X26377666Y52693000D01*
X26362019Y52690751D01*
X26303930Y52682399D01*
X26233656Y52692504D01*
X26180001Y52738997D01*
X26160000Y52807117D01*
X26160000Y53709000D01*
X25916417Y53708999D01*
X25834374Y53702544D01*
X25643552Y53651413D01*
X25467531Y53561725D01*
X25467528Y53561724D01*
X25313997Y53437398D01*
X25242241Y53348786D01*
X25183827Y53308434D01*
X25112870Y53306068D01*
X25051898Y53342441D01*
X25046400Y53348786D01*
X25046079Y53349183D01*
X24974355Y53437755D01*
X24820745Y53562145D01*
X24820743Y53562146D01*
X24820742Y53562147D01*
X24644627Y53651882D01*
X24453708Y53703039D01*
X24371611Y53709500D01*
X24371608Y53709500D01*
X23376392Y53709500D01*
X23376389Y53709500D01*
X23294291Y53703039D01*
X23103372Y53651882D01*
X22927257Y53562147D01*
X22927253Y53562145D01*
X22927255Y53562145D01*
X22773645Y53437755D01*
X22701922Y53349183D01*
X22701921Y53349182D01*
X22643507Y53308830D01*
X22572550Y53306464D01*
X22511578Y53342837D01*
X22506079Y53349182D01*
X22434355Y53437755D01*
X22280745Y53562145D01*
X22280743Y53562146D01*
X22280742Y53562147D01*
X22104627Y53651882D01*
X21913708Y53703039D01*
X21831611Y53709500D01*
X21831608Y53709500D01*
X20836392Y53709500D01*
X20836389Y53709500D01*
X20754291Y53703039D01*
X20563372Y53651882D01*
X20387257Y53562147D01*
X20387253Y53562145D01*
X20387255Y53562145D01*
X20233645Y53437755D01*
X20161922Y53349183D01*
X20161921Y53349182D01*
X20103507Y53308830D01*
X20032550Y53306464D01*
X19971578Y53342837D01*
X19966079Y53349182D01*
X19894355Y53437755D01*
X19740745Y53562145D01*
X19740743Y53562146D01*
X19740742Y53562147D01*
X19564627Y53651882D01*
X19373708Y53703039D01*
X19291611Y53709500D01*
X19291608Y53709500D01*
X18296392Y53709500D01*
X18296389Y53709500D01*
X18214291Y53703039D01*
X18023372Y53651882D01*
X17847257Y53562147D01*
X17693644Y53437755D01*
X17668452Y53406645D01*
X17610037Y53366293D01*
X17539080Y53363929D01*
X17478108Y53400302D01*
X17464147Y53418426D01*
X17297376Y53681215D01*
X17093609Y53927527D01*
X16860576Y54146360D01*
X16601961Y54334255D01*
X16577668Y54347610D01*
X16458567Y54413087D01*
X16408510Y54463431D01*
X16393617Y54532848D01*
X16418618Y54599297D01*
X16475575Y54641681D01*
X16519270Y54649500D01*
X64430537Y54649500D01*
X64498658Y54629498D01*
G37*
G04 #@! TD.AperFunction*
G04 #@! TA.AperFunction,Conductor*
G36*
X42622940Y4158998D02*
G01*
X42669433Y4105342D01*
X42679537Y4035068D01*
X42675716Y4017508D01*
X42670000Y3998039D01*
X42670000Y3851961D01*
X42672890Y3842120D01*
X42675715Y3832499D01*
X42675715Y3761502D01*
X42637332Y3701776D01*
X42572751Y3672283D01*
X42554819Y3671000D01*
X41261181Y3671000D01*
X41193060Y3691002D01*
X41146567Y3744658D01*
X41136463Y3814932D01*
X41140285Y3832499D01*
X41143110Y3842120D01*
X41146000Y3851961D01*
X41146000Y3998039D01*
X41140285Y4017503D01*
X41140285Y4088498D01*
X41178668Y4148224D01*
X41243249Y4177717D01*
X41261181Y4179000D01*
X42554819Y4179000D01*
X42622940Y4158998D01*
G37*
G04 #@! TD.AperFunction*
G04 #@! TA.AperFunction,Conductor*
G36*
X8593812Y31329877D02*
G01*
X8600392Y31323751D01*
X9133154Y30790988D01*
X9665058Y30259084D01*
X9677031Y30245230D01*
X9691601Y30225659D01*
X9732269Y30191535D01*
X9736315Y30187827D01*
X9742235Y30181907D01*
X9742236Y30181906D01*
X9768379Y30161235D01*
X9828148Y30111083D01*
X9834279Y30107051D01*
X9834244Y30107000D01*
X9840697Y30102889D01*
X9840729Y30102940D01*
X9846975Y30099088D01*
X9846977Y30099087D01*
X9846980Y30099085D01*
X9917705Y30066106D01*
X9987434Y30031086D01*
X9987436Y30031086D01*
X9994331Y30028576D01*
X9994309Y30028518D01*
X10001538Y30026005D01*
X10001558Y30026064D01*
X10008524Y30023757D01*
X10008527Y30023755D01*
X10084931Y30007980D01*
X10160877Y29989980D01*
X10160883Y29989980D01*
X10168166Y29989128D01*
X10168158Y29989068D01*
X10175774Y29988290D01*
X10175780Y29988351D01*
X10183083Y29987713D01*
X10183092Y29987711D01*
X10261091Y29989980D01*
X17498638Y29989980D01*
X17566759Y29969978D01*
X17604121Y29932896D01*
X17615958Y29914777D01*
X17621150Y29906831D01*
X17775157Y29739534D01*
X17954601Y29599868D01*
X17954603Y29599867D01*
X17954606Y29599865D01*
X17966750Y29593293D01*
X18017140Y29543280D01*
X18032492Y29473963D01*
X18007931Y29407350D01*
X17966750Y29371667D01*
X17954606Y29365096D01*
X17954600Y29365092D01*
X17775154Y29225424D01*
X17621147Y29058126D01*
X17496778Y28867765D01*
X17405438Y28659531D01*
X17405435Y28659524D01*
X17349617Y28439102D01*
X17349616Y28439096D01*
X17349616Y28439094D01*
X17330838Y28212480D01*
X17348987Y27993451D01*
X17349617Y27985859D01*
X17405435Y27765437D01*
X17405438Y27765430D01*
X17496778Y27557196D01*
X17611211Y27382043D01*
X17621150Y27366831D01*
X17775157Y27199534D01*
X17954601Y27059868D01*
X17954603Y27059867D01*
X17954606Y27059865D01*
X17966750Y27053293D01*
X18017140Y27003280D01*
X18032492Y26933963D01*
X18007931Y26867350D01*
X17966750Y26831667D01*
X17954606Y26825096D01*
X17954600Y26825092D01*
X17775154Y26685424D01*
X17621147Y26518126D01*
X17496778Y26327765D01*
X17405438Y26119531D01*
X17405435Y26119524D01*
X17349617Y25899102D01*
X17349616Y25899096D01*
X17349616Y25899094D01*
X17330838Y25672480D01*
X17349543Y25446743D01*
X17349617Y25445859D01*
X17405435Y25225437D01*
X17405438Y25225430D01*
X17496778Y25017196D01*
X17513011Y24992349D01*
X17621150Y24826831D01*
X17775157Y24659534D01*
X17954601Y24519868D01*
X17954603Y24519867D01*
X17954606Y24519865D01*
X17966750Y24513293D01*
X18017140Y24463280D01*
X18032492Y24393963D01*
X18007931Y24327350D01*
X17966750Y24291667D01*
X17954606Y24285096D01*
X17954600Y24285092D01*
X17775154Y24145424D01*
X17621147Y23978126D01*
X17496778Y23787765D01*
X17405438Y23579531D01*
X17405435Y23579524D01*
X17349617Y23359102D01*
X17349616Y23359096D01*
X17349616Y23359094D01*
X17330838Y23132480D01*
X17344108Y22972332D01*
X17349617Y22905859D01*
X17405435Y22685437D01*
X17405438Y22685430D01*
X17496778Y22477196D01*
X17620662Y22287577D01*
X17621150Y22286831D01*
X17677631Y22225476D01*
X17769609Y22125560D01*
X17775157Y22119534D01*
X17954601Y21979868D01*
X17954603Y21979867D01*
X17954606Y21979865D01*
X17966750Y21973293D01*
X18017140Y21923280D01*
X18032492Y21853963D01*
X18007931Y21787350D01*
X17966750Y21751667D01*
X17954606Y21745096D01*
X17954600Y21745092D01*
X17775154Y21605424D01*
X17621147Y21438126D01*
X17496778Y21247765D01*
X17405438Y21039531D01*
X17405435Y21039524D01*
X17349617Y20819102D01*
X17349616Y20819096D01*
X17349616Y20819094D01*
X17330838Y20592480D01*
X17344249Y20430630D01*
X17349617Y20365859D01*
X17405435Y20145437D01*
X17405438Y20145430D01*
X17496778Y19937196D01*
X17571179Y19823316D01*
X17621150Y19746831D01*
X17775157Y19579534D01*
X17954601Y19439868D01*
X17954603Y19439867D01*
X17954606Y19439865D01*
X17966750Y19433293D01*
X18017140Y19383280D01*
X18032492Y19313963D01*
X18007931Y19247350D01*
X17966750Y19211667D01*
X17954606Y19205096D01*
X17954600Y19205092D01*
X17775154Y19065424D01*
X17621147Y18898126D01*
X17496778Y18707765D01*
X17405438Y18499531D01*
X17405435Y18499524D01*
X17349617Y18279102D01*
X17349616Y18279096D01*
X17349616Y18279094D01*
X17330838Y18052480D01*
X17349368Y17828854D01*
X17349617Y17825859D01*
X17405435Y17605437D01*
X17405438Y17605430D01*
X17496778Y17397196D01*
X17513011Y17372349D01*
X17621150Y17206831D01*
X17775157Y17039534D01*
X17954601Y16899868D01*
X17967272Y16893011D01*
X18017663Y16843000D01*
X18033016Y16773683D01*
X18008457Y16707070D01*
X17967277Y16671385D01*
X17954876Y16664674D01*
X17954874Y16664673D01*
X17775497Y16525058D01*
X17621542Y16357819D01*
X17497220Y16167530D01*
X17405910Y15959362D01*
X17405909Y15959361D01*
X17357065Y15766481D01*
X17357066Y15766480D01*
X18084459Y15766480D01*
X18152580Y15746478D01*
X18199073Y15692822D01*
X18209177Y15622548D01*
X18205356Y15604988D01*
X18199640Y15585519D01*
X18199640Y15439441D01*
X18205355Y15419979D01*
X18205355Y15348982D01*
X18166972Y15289256D01*
X18102391Y15259763D01*
X18084459Y15258480D01*
X17357065Y15258480D01*
X17405909Y15065600D01*
X17405910Y15065599D01*
X17497220Y14857431D01*
X17621542Y14667142D01*
X17775497Y14499903D01*
X17954874Y14360288D01*
X17954880Y14360284D01*
X17967272Y14353578D01*
X18017663Y14303566D01*
X18033016Y14234249D01*
X18008456Y14167636D01*
X17967276Y14131952D01*
X17954606Y14125096D01*
X17954600Y14125092D01*
X17775154Y13985424D01*
X17621149Y13818129D01*
X17604121Y13792064D01*
X17550117Y13745976D01*
X17498638Y13734980D01*
X9393188Y13734980D01*
X9325067Y13754982D01*
X9304093Y13771885D01*
X8031729Y15044249D01*
X8031725Y15044255D01*
X7734034Y15341946D01*
X7700008Y15404258D01*
X7705073Y15475073D01*
X7747620Y15531909D01*
X7814140Y15556720D01*
X7855739Y15552748D01*
X8030625Y15505886D01*
X8030626Y15505886D01*
X8030629Y15505885D01*
X8250000Y15486693D01*
X8469371Y15505885D01*
X8682076Y15562880D01*
X8881654Y15655944D01*
X9062038Y15782251D01*
X9062041Y15782256D01*
X9160905Y15881117D01*
X9223217Y15915143D01*
X9294032Y15910078D01*
X9339095Y15881117D01*
X9437957Y15782255D01*
X9437961Y15782252D01*
X9437962Y15782251D01*
X9618346Y15655944D01*
X9817924Y15562880D01*
X10030629Y15505885D01*
X10250000Y15486693D01*
X10469371Y15505885D01*
X10682076Y15562880D01*
X10881654Y15655944D01*
X11062038Y15782251D01*
X11217749Y15937962D01*
X11344056Y16118346D01*
X11437120Y16317924D01*
X11494115Y16530629D01*
X11513307Y16750000D01*
X11494115Y16969371D01*
X11437120Y17182076D01*
X11344056Y17381653D01*
X11217749Y17562038D01*
X11062038Y17717749D01*
X10881654Y17844056D01*
X10881650Y17844058D01*
X10682079Y17937119D01*
X10682073Y17937121D01*
X10516084Y17981598D01*
X10469371Y17994115D01*
X10250000Y18013307D01*
X10249999Y18013307D01*
X10138438Y18003548D01*
X10068833Y18017538D01*
X10038363Y18039974D01*
X8422205Y19656133D01*
X8388179Y19718445D01*
X8385300Y19745228D01*
X8385300Y31234653D01*
X8405302Y31302774D01*
X8458958Y31349267D01*
X8529232Y31359371D01*
X8593812Y31329877D01*
G37*
G04 #@! TD.AperFunction*
G04 #@! TA.AperFunction,Conductor*
G36*
X29050012Y36717498D02*
G01*
X29096505Y36663842D01*
X29106609Y36593568D01*
X29077115Y36528988D01*
X29017389Y36490604D01*
X29014557Y36489809D01*
X28895126Y36457807D01*
X28817926Y36437121D01*
X28817920Y36437119D01*
X28618346Y36344056D01*
X28437965Y36217752D01*
X28437959Y36217747D01*
X28282253Y36062041D01*
X28282248Y36062035D01*
X28155944Y35881654D01*
X28062881Y35682080D01*
X28062879Y35682074D01*
X28005885Y35469371D01*
X28003572Y35442927D01*
X27986693Y35250000D01*
X28005885Y35030629D01*
X28019486Y34979869D01*
X28062879Y34817927D01*
X28062881Y34817921D01*
X28155942Y34618350D01*
X28155944Y34618346D01*
X28277625Y34444569D01*
X28282251Y34437962D01*
X28282254Y34437958D01*
X28437957Y34282255D01*
X28437961Y34282252D01*
X28437962Y34282251D01*
X28618346Y34155944D01*
X28817924Y34062880D01*
X29030629Y34005885D01*
X29250000Y33986693D01*
X29469371Y34005885D01*
X29682076Y34062880D01*
X29881654Y34155944D01*
X29947824Y34202277D01*
X29971298Y34218713D01*
X30038572Y34241401D01*
X30043568Y34241500D01*
X32427081Y34241500D01*
X32495202Y34221498D01*
X32530292Y34187771D01*
X32532117Y34185166D01*
X32532118Y34185165D01*
X32532124Y34185158D01*
X32687823Y34029459D01*
X32687832Y34029452D01*
X32807903Y33945377D01*
X32852232Y33889920D01*
X32859541Y33819301D01*
X32827511Y33755940D01*
X32824729Y33753069D01*
X32611635Y33539974D01*
X32549323Y33505949D01*
X32511559Y33503548D01*
X32400000Y33513307D01*
X32180629Y33494115D01*
X31967926Y33437121D01*
X31967920Y33437119D01*
X31768346Y33344056D01*
X31587965Y33217752D01*
X31467058Y33096846D01*
X31404745Y33062821D01*
X31333930Y33067887D01*
X31280042Y33106649D01*
X31200402Y33204999D01*
X31046871Y33329324D01*
X31046868Y33329325D01*
X30870847Y33419013D01*
X30680029Y33470143D01*
X30597984Y33476600D01*
X30202000Y33476600D01*
X30202000Y32727117D01*
X30181998Y32658996D01*
X30128342Y32612503D01*
X30058070Y32602399D01*
X29999980Y32610751D01*
X29984334Y32613000D01*
X29911666Y32613000D01*
X29896019Y32610751D01*
X29837930Y32602399D01*
X29767656Y32612504D01*
X29714001Y32658997D01*
X29694000Y32727117D01*
X29694000Y33476600D01*
X29298017Y33476599D01*
X29215974Y33470144D01*
X29025152Y33419013D01*
X28849131Y33329325D01*
X28849128Y33329324D01*
X28757691Y33255279D01*
X28692163Y33227954D01*
X28622265Y33240394D01*
X28599105Y33255278D01*
X28507145Y33329745D01*
X28507143Y33329746D01*
X28507142Y33329747D01*
X28331027Y33419482D01*
X28140108Y33470639D01*
X28058011Y33477100D01*
X28058008Y33477100D01*
X26757992Y33477100D01*
X26757989Y33477100D01*
X26675891Y33470639D01*
X26484972Y33419482D01*
X26308857Y33329747D01*
X26155245Y33205355D01*
X26030853Y33051743D01*
X25941118Y32875628D01*
X25889961Y32684709D01*
X25883500Y32602611D01*
X25883500Y31607389D01*
X25889961Y31525292D01*
X25941118Y31334373D01*
X26018718Y31182074D01*
X26030855Y31158255D01*
X26155245Y31004645D01*
X26308855Y30880255D01*
X26484971Y30790519D01*
X26675894Y30739361D01*
X26738606Y30734426D01*
X26757989Y30732900D01*
X26757992Y30732900D01*
X28058011Y30732900D01*
X28075979Y30734315D01*
X28140106Y30739361D01*
X28331029Y30790519D01*
X28507145Y30880255D01*
X28599102Y30954721D01*
X28664629Y30982046D01*
X28734528Y30969606D01*
X28757689Y30954721D01*
X28849123Y30880681D01*
X28849131Y30880676D01*
X29025152Y30790988D01*
X29215970Y30739858D01*
X29298015Y30733401D01*
X29694000Y30733401D01*
X29694000Y31482884D01*
X29714002Y31551005D01*
X29767658Y31597498D01*
X29837929Y31607602D01*
X29837932Y31607602D01*
X29837932Y31607601D01*
X29885258Y31600797D01*
X29911666Y31597000D01*
X29984334Y31597000D01*
X30023645Y31602653D01*
X30058068Y31607601D01*
X30128342Y31597498D01*
X30181998Y31551005D01*
X30202000Y31482884D01*
X30202000Y30733401D01*
X30597983Y30733401D01*
X30680025Y30739857D01*
X30870847Y30790988D01*
X31046868Y30880676D01*
X31046871Y30880677D01*
X31200399Y31005001D01*
X31324723Y31158529D01*
X31324726Y31158535D01*
X31376605Y31260353D01*
X31425353Y31311969D01*
X31494267Y31329035D01*
X31561469Y31306135D01*
X31577966Y31292246D01*
X31587962Y31282251D01*
X31587965Y31282249D01*
X31592183Y31278709D01*
X31590506Y31276712D01*
X31628042Y31229869D01*
X31637500Y31181973D01*
X31637500Y22514729D01*
X31636170Y22496470D01*
X31632634Y22472332D01*
X31632634Y22472327D01*
X31637260Y22419445D01*
X31637500Y22413952D01*
X31637500Y22405584D01*
X31641368Y22372489D01*
X31648168Y22294763D01*
X31649652Y22287577D01*
X31649593Y22287565D01*
X31651251Y22280084D01*
X31651310Y22280097D01*
X31653001Y22272960D01*
X31679690Y22199631D01*
X31704234Y22125562D01*
X31707335Y22118912D01*
X31707280Y22118887D01*
X31710619Y22111990D01*
X31710673Y22112017D01*
X31713962Y22105468D01*
X31713965Y22105464D01*
X31713966Y22105461D01*
X31756848Y22040262D01*
X31797812Y21973851D01*
X31797813Y21973850D01*
X31797815Y21973847D01*
X31802362Y21968097D01*
X31802314Y21968060D01*
X31807154Y21962119D01*
X31807200Y21962157D01*
X31811911Y21956543D01*
X31811912Y21956542D01*
X31811915Y21956538D01*
X31855759Y21915173D01*
X31868684Y21902979D01*
X32910026Y20861636D01*
X32944052Y20799324D01*
X32946452Y20761561D01*
X32936693Y20650001D01*
X32936693Y20650000D01*
X32955885Y20430629D01*
X33000097Y20265629D01*
X33014304Y20212610D01*
X33012327Y20212081D01*
X33016253Y20150137D01*
X32981724Y20088103D01*
X32919138Y20054584D01*
X32907979Y20052770D01*
X32892893Y20051007D01*
X32889688Y20050632D01*
X32877599Y20049575D01*
X32811966Y20043832D01*
X32811962Y20043832D01*
X32811960Y20043831D01*
X32811958Y20043831D01*
X32804773Y20042347D01*
X32804760Y20042406D01*
X32797283Y20040748D01*
X32797297Y20040690D01*
X32790156Y20038998D01*
X32716830Y20012310D01*
X32642767Y19987769D01*
X32636115Y19984666D01*
X32636090Y19984720D01*
X32629188Y19981378D01*
X32629215Y19981326D01*
X32622666Y19978038D01*
X32557461Y19935152D01*
X32491049Y19894187D01*
X32485298Y19889639D01*
X32485260Y19889686D01*
X32479323Y19884850D01*
X32479361Y19884804D01*
X32473740Y19880088D01*
X32420178Y19823316D01*
X31607095Y19010234D01*
X31544783Y18976209D01*
X31473967Y18981274D01*
X31417132Y19023821D01*
X31392321Y19090341D01*
X31392000Y19099330D01*
X31392000Y19241000D01*
X30491181Y19241000D01*
X30423060Y19261002D01*
X30376567Y19314658D01*
X30366463Y19384932D01*
X30370285Y19402499D01*
X30376000Y19421961D01*
X30376000Y19568039D01*
X30370285Y19587503D01*
X30370285Y19658498D01*
X30408668Y19718224D01*
X30473249Y19747717D01*
X30491181Y19749000D01*
X31391999Y19749000D01*
X31391999Y19992583D01*
X31385543Y20074626D01*
X31334412Y20265448D01*
X31244724Y20441469D01*
X31244723Y20441472D01*
X31120399Y20595000D01*
X30966871Y20719324D01*
X30966868Y20719325D01*
X30790847Y20809013D01*
X30600029Y20860143D01*
X30517984Y20866600D01*
X30122000Y20866600D01*
X30122000Y20117117D01*
X30101998Y20048996D01*
X30048342Y20002503D01*
X29978070Y19992399D01*
X29919980Y20000751D01*
X29904334Y20003000D01*
X29831666Y20003000D01*
X29816019Y20000751D01*
X29757930Y19992399D01*
X29687656Y20002504D01*
X29634001Y20048997D01*
X29614000Y20117117D01*
X29614000Y20866600D01*
X29218017Y20866599D01*
X29135974Y20860144D01*
X28945152Y20809013D01*
X28769131Y20719325D01*
X28769128Y20719324D01*
X28677691Y20645279D01*
X28612163Y20617954D01*
X28542265Y20630394D01*
X28519105Y20645278D01*
X28427145Y20719745D01*
X28427143Y20719746D01*
X28427142Y20719747D01*
X28251027Y20809482D01*
X28060108Y20860639D01*
X27978011Y20867100D01*
X27978008Y20867100D01*
X26677992Y20867100D01*
X26677989Y20867100D01*
X26595891Y20860639D01*
X26404972Y20809482D01*
X26228857Y20719747D01*
X26075245Y20595355D01*
X25950853Y20441743D01*
X25861118Y20265628D01*
X25809961Y20074709D01*
X25803500Y19992611D01*
X25803500Y18997389D01*
X25809961Y18915292D01*
X25861118Y18724373D01*
X25938275Y18572943D01*
X25950855Y18548255D01*
X26075245Y18394645D01*
X26228855Y18270255D01*
X26228857Y18270254D01*
X26297326Y18235367D01*
X26348941Y18186618D01*
X26366007Y18117704D01*
X26343106Y18050502D01*
X26287508Y18006350D01*
X26240123Y17997100D01*
X25708541Y17997100D01*
X25690281Y17998430D01*
X25666141Y18001966D01*
X25613258Y17997340D01*
X25607765Y17997100D01*
X25599396Y17997100D01*
X25573857Y17994115D01*
X25566301Y17993232D01*
X25554212Y17992175D01*
X25488579Y17986432D01*
X25488575Y17986432D01*
X25488573Y17986431D01*
X25488571Y17986431D01*
X25481386Y17984947D01*
X25481373Y17985006D01*
X25473896Y17983348D01*
X25473910Y17983290D01*
X25466769Y17981598D01*
X25393443Y17954910D01*
X25319380Y17930369D01*
X25312728Y17927266D01*
X25312703Y17927320D01*
X25305801Y17923978D01*
X25305828Y17923926D01*
X25299279Y17920638D01*
X25234074Y17877752D01*
X25167662Y17836787D01*
X25161911Y17832239D01*
X25161873Y17832286D01*
X25155936Y17827450D01*
X25155974Y17827404D01*
X25150353Y17822688D01*
X25096791Y17765916D01*
X23627520Y16296645D01*
X23565208Y16262620D01*
X23538425Y16259740D01*
X22637108Y16259740D01*
X22608052Y16263136D01*
X22594318Y16266391D01*
X22558075Y16274981D01*
X22550787Y16275832D01*
X22550794Y16275893D01*
X22543180Y16276671D01*
X22543175Y16276609D01*
X22535863Y16277249D01*
X22535862Y16277249D01*
X22460293Y16275051D01*
X22391619Y16293065D01*
X22351147Y16332083D01*
X22334132Y16358126D01*
X22334131Y16358127D01*
X22334130Y16358129D01*
X22206704Y16496551D01*
X22180125Y16525424D01*
X22180124Y16525425D01*
X22180123Y16525426D01*
X22000679Y16665092D01*
X22000678Y16665093D01*
X21995838Y16667712D01*
X21988530Y16671667D01*
X21938140Y16721677D01*
X21922787Y16790994D01*
X21947346Y16857607D01*
X21988529Y16893294D01*
X22000679Y16899868D01*
X22180123Y17039534D01*
X22334130Y17206831D01*
X22458501Y17397195D01*
X22549843Y17605433D01*
X22605664Y17825866D01*
X22624442Y18052480D01*
X22605664Y18279094D01*
X22585276Y18359606D01*
X22549844Y18499524D01*
X22549841Y18499531D01*
X22528467Y18548258D01*
X22458501Y18707765D01*
X22334130Y18898129D01*
X22180123Y19065426D01*
X22000679Y19205092D01*
X22000678Y19205093D01*
X21995838Y19207712D01*
X21988530Y19211667D01*
X21938140Y19261677D01*
X21922787Y19330994D01*
X21947346Y19397607D01*
X21988529Y19433294D01*
X22000679Y19439868D01*
X22180123Y19579534D01*
X22334130Y19746831D01*
X22458501Y19937195D01*
X22549843Y20145433D01*
X22605664Y20365866D01*
X22624442Y20592480D01*
X22605664Y20819094D01*
X22566080Y20975410D01*
X22549844Y21039524D01*
X22549841Y21039531D01*
X22517639Y21112943D01*
X22458501Y21247765D01*
X22428938Y21293015D01*
X22334132Y21438126D01*
X22334131Y21438127D01*
X22334130Y21438129D01*
X22180123Y21605426D01*
X22000679Y21745092D01*
X22000678Y21745093D01*
X21995838Y21747712D01*
X21988530Y21751667D01*
X21938140Y21801677D01*
X21922787Y21870994D01*
X21947346Y21937607D01*
X21988529Y21973294D01*
X22000679Y21979868D01*
X22180123Y22119534D01*
X22334130Y22286831D01*
X22458501Y22477195D01*
X22549843Y22685433D01*
X22605664Y22905866D01*
X22624442Y23132480D01*
X22605664Y23359094D01*
X22549843Y23579527D01*
X22458501Y23787765D01*
X22371917Y23920292D01*
X22334132Y23978126D01*
X22334131Y23978127D01*
X22334130Y23978129D01*
X22180123Y24145426D01*
X22000679Y24285092D01*
X22000678Y24285093D01*
X21995838Y24287712D01*
X21988530Y24291667D01*
X21938140Y24341677D01*
X21922787Y24410994D01*
X21947346Y24477607D01*
X21988529Y24513294D01*
X22000679Y24519868D01*
X22180123Y24659534D01*
X22334130Y24826831D01*
X22458501Y25017195D01*
X22549843Y25225433D01*
X22605664Y25445866D01*
X22624442Y25672480D01*
X22605664Y25899094D01*
X22549843Y26119527D01*
X22458501Y26327765D01*
X22334130Y26518129D01*
X22180123Y26685426D01*
X22000679Y26825092D01*
X22000678Y26825093D01*
X21995838Y26827712D01*
X21988530Y26831667D01*
X21938140Y26881677D01*
X21922787Y26950994D01*
X21947346Y27017607D01*
X21988529Y27053294D01*
X22000679Y27059868D01*
X22180123Y27199534D01*
X22334130Y27366831D01*
X22458501Y27557195D01*
X22549843Y27765433D01*
X22605664Y27985866D01*
X22624442Y28212480D01*
X22605664Y28439094D01*
X22571675Y28573313D01*
X22549844Y28659524D01*
X22549841Y28659531D01*
X22522365Y28722169D01*
X22458501Y28867765D01*
X22412156Y28938701D01*
X22334132Y29058126D01*
X22334131Y29058127D01*
X22334130Y29058129D01*
X22180123Y29225426D01*
X22000679Y29365092D01*
X22000678Y29365093D01*
X21995838Y29367712D01*
X21988530Y29371667D01*
X21938140Y29421677D01*
X21922787Y29490994D01*
X21947346Y29557607D01*
X21988529Y29593294D01*
X22000679Y29599868D01*
X22180123Y29739534D01*
X22334130Y29906831D01*
X22458501Y30097195D01*
X22549843Y30305433D01*
X22605664Y30525866D01*
X22624442Y30752480D01*
X22605664Y30979094D01*
X22599193Y31004646D01*
X22549844Y31199524D01*
X22549841Y31199531D01*
X22517639Y31272943D01*
X22458501Y31407765D01*
X22381717Y31525292D01*
X22334132Y31598126D01*
X22334131Y31598127D01*
X22334130Y31598129D01*
X22180123Y31765426D01*
X22000679Y31905092D01*
X22000678Y31905093D01*
X21995838Y31907712D01*
X21988530Y31911667D01*
X21938140Y31961677D01*
X21922787Y32030994D01*
X21947346Y32097607D01*
X21988529Y32133294D01*
X22000679Y32139868D01*
X22180123Y32279534D01*
X22334130Y32446831D01*
X22458501Y32637195D01*
X22549843Y32845433D01*
X22605664Y33065866D01*
X22624442Y33292480D01*
X22605664Y33519094D01*
X22603794Y33526478D01*
X22549844Y33739524D01*
X22549841Y33739531D01*
X22544180Y33752436D01*
X22458501Y33947765D01*
X22342275Y34125662D01*
X22334132Y34138126D01*
X22334131Y34138127D01*
X22334130Y34138129D01*
X22180123Y34305426D01*
X22000679Y34445092D01*
X22000678Y34445093D01*
X21993511Y34448971D01*
X21988005Y34451951D01*
X21937615Y34501963D01*
X21922263Y34571280D01*
X21946824Y34637893D01*
X21988009Y34673580D01*
X22000407Y34680290D01*
X22179782Y34819903D01*
X22333737Y34987142D01*
X22458059Y35177431D01*
X22549369Y35385599D01*
X22549370Y35385600D01*
X22598214Y35578480D01*
X21870821Y35578480D01*
X21802700Y35598482D01*
X21756207Y35652138D01*
X21746103Y35722412D01*
X21749925Y35739979D01*
X21755640Y35759441D01*
X21755640Y35905519D01*
X21749924Y35924983D01*
X21749925Y35995978D01*
X21788308Y36055704D01*
X21852889Y36085197D01*
X21870821Y36086480D01*
X22598214Y36086480D01*
X22598214Y36086481D01*
X22549370Y36279361D01*
X22549369Y36279362D01*
X22458059Y36487530D01*
X22422090Y36542585D01*
X22401577Y36610553D01*
X22421066Y36678822D01*
X22474371Y36725717D01*
X22527573Y36737500D01*
X28981891Y36737500D01*
X29050012Y36717498D01*
G37*
G04 #@! TD.AperFunction*
G04 #@! TA.AperFunction,Conductor*
G36*
X1366621Y27959498D02*
G01*
X1413114Y27905842D01*
X1424500Y27853500D01*
X1424500Y27640447D01*
X1404498Y27572326D01*
X1350842Y27525833D01*
X1280568Y27515729D01*
X1250284Y27524038D01*
X1219743Y27536688D01*
X1191258Y27553132D01*
X1095135Y27626891D01*
X1071890Y27650136D01*
X998130Y27746261D01*
X981687Y27774742D01*
X972129Y27797816D01*
X969036Y27805283D01*
X961448Y27875872D01*
X993227Y27939359D01*
X1054286Y27975586D01*
X1085446Y27979500D01*
X1298500Y27979500D01*
X1366621Y27959498D01*
G37*
G04 #@! TD.AperFunction*
G04 #@! TA.AperFunction,Conductor*
G36*
X1933621Y27959498D02*
G01*
X1980114Y27905842D01*
X1991500Y27853500D01*
X1991500Y27775518D01*
X1971498Y27707397D01*
X1965462Y27698814D01*
X1928115Y27650143D01*
X1904860Y27626888D01*
X1818087Y27560304D01*
X1808744Y27553134D01*
X1780258Y27536688D01*
X1749718Y27524038D01*
X1679128Y27516449D01*
X1615641Y27548228D01*
X1579414Y27609287D01*
X1575500Y27640447D01*
X1575500Y27853500D01*
X1595502Y27921621D01*
X1649158Y27968114D01*
X1701500Y27979500D01*
X1865500Y27979500D01*
X1933621Y27959498D01*
G37*
G04 #@! TD.AperFunction*
G04 #@! TA.AperFunction,Conductor*
G36*
X1384360Y28561772D02*
G01*
X1420587Y28500713D01*
X1424500Y28469554D01*
X1424500Y28256500D01*
X1404498Y28188379D01*
X1350842Y28141886D01*
X1298500Y28130500D01*
X1085446Y28130500D01*
X1017325Y28150502D01*
X970832Y28204158D01*
X960728Y28274432D01*
X969037Y28304716D01*
X981687Y28335257D01*
X998127Y28363737D01*
X1071894Y28459870D01*
X1095130Y28483106D01*
X1191263Y28556873D01*
X1219743Y28573313D01*
X1250284Y28585963D01*
X1320873Y28593552D01*
X1384360Y28561772D01*
G37*
G04 #@! TD.AperFunction*
G04 #@! TA.AperFunction,Conductor*
G36*
X1749717Y28585964D02*
G01*
X1754051Y28584168D01*
X1780258Y28573313D01*
X1808744Y28556866D01*
X1881923Y28500713D01*
X1904855Y28483117D01*
X1928112Y28459861D01*
X1944041Y28439102D01*
X1965462Y28411187D01*
X1991063Y28344967D01*
X1991500Y28334482D01*
X1991500Y28256500D01*
X1971498Y28188379D01*
X1917842Y28141886D01*
X1865500Y28130500D01*
X1701500Y28130500D01*
X1633379Y28150502D01*
X1586886Y28204158D01*
X1575500Y28256500D01*
X1575500Y28469554D01*
X1595502Y28537675D01*
X1649158Y28584168D01*
X1719432Y28594272D01*
X1749717Y28585964D01*
G37*
G04 #@! TD.AperFunction*
G04 #@! TA.AperFunction,Conductor*
G36*
X17277661Y36717498D02*
G01*
X17324154Y36663842D01*
X17335540Y36611500D01*
X17335540Y34920231D01*
X17342049Y34859684D01*
X17342051Y34859676D01*
X17393150Y34722678D01*
X17393152Y34722673D01*
X17480778Y34605619D01*
X17597831Y34517994D01*
X17597832Y34517994D01*
X17597836Y34517991D01*
X17700399Y34479737D01*
X17757231Y34437192D01*
X17782042Y34370672D01*
X17766951Y34301298D01*
X17749064Y34276346D01*
X17621544Y34137823D01*
X17497220Y33947530D01*
X17405910Y33739362D01*
X17405909Y33739361D01*
X17357065Y33546481D01*
X17357066Y33546480D01*
X18084459Y33546480D01*
X18152580Y33526478D01*
X18199073Y33472822D01*
X18209177Y33402548D01*
X18205356Y33384988D01*
X18199640Y33365519D01*
X18199640Y33219441D01*
X18203881Y33204999D01*
X18205355Y33199979D01*
X18205355Y33128982D01*
X18166972Y33069256D01*
X18102391Y33039763D01*
X18084459Y33038480D01*
X17357065Y33038480D01*
X17405909Y32845600D01*
X17405910Y32845599D01*
X17497220Y32637431D01*
X17621542Y32447142D01*
X17775497Y32279903D01*
X17954874Y32140288D01*
X17954880Y32140284D01*
X17967272Y32133578D01*
X18017663Y32083566D01*
X18033016Y32014249D01*
X18008456Y31947636D01*
X17967276Y31911952D01*
X17954606Y31905096D01*
X17954600Y31905092D01*
X17775154Y31765424D01*
X17621149Y31598129D01*
X17604121Y31572064D01*
X17550117Y31525976D01*
X17498638Y31514980D01*
X13943057Y31514980D01*
X13874936Y31534982D01*
X13828443Y31588638D01*
X13818339Y31658912D01*
X13847833Y31723492D01*
X13870786Y31744193D01*
X13886558Y31755237D01*
X13925138Y31782251D01*
X14080849Y31937962D01*
X14207156Y32118346D01*
X14300220Y32317924D01*
X14357215Y32530629D01*
X14376407Y32750000D01*
X14357215Y32969371D01*
X14300220Y33182076D01*
X14207156Y33381653D01*
X14080849Y33562038D01*
X14074707Y33568180D01*
X14040681Y33630492D01*
X14045746Y33701307D01*
X14074707Y33746370D01*
X14673058Y34344721D01*
X15281451Y34953115D01*
X15330913Y34983623D01*
X15366563Y34995435D01*
X15366566Y34995438D01*
X15373223Y34998540D01*
X15373249Y34998484D01*
X15380127Y35001814D01*
X15380099Y35001869D01*
X15386656Y35005163D01*
X15386658Y35005165D01*
X15386662Y35005166D01*
X15427848Y35032255D01*
X15451862Y35048049D01*
X15476039Y35062962D01*
X15518272Y35089012D01*
X15518274Y35089015D01*
X15524032Y35093566D01*
X15524070Y35093518D01*
X15529997Y35098345D01*
X15529957Y35098393D01*
X15535576Y35103110D01*
X15535585Y35103115D01*
X15558950Y35127882D01*
X15589144Y35159884D01*
X16302198Y35872938D01*
X16316043Y35884905D01*
X16335622Y35899479D01*
X16369752Y35940156D01*
X16373451Y35944192D01*
X16379373Y35950112D01*
X16400045Y35976257D01*
X16450196Y36036024D01*
X16450198Y36036029D01*
X16454230Y36042157D01*
X16454283Y36042122D01*
X16458395Y36048577D01*
X16458341Y36048610D01*
X16462189Y36054850D01*
X16462195Y36054857D01*
X16495174Y36125582D01*
X16527673Y36190292D01*
X16551172Y36222836D01*
X17028933Y36700596D01*
X17091246Y36734621D01*
X17118029Y36737500D01*
X17209540Y36737500D01*
X17277661Y36717498D01*
G37*
G04 #@! TD.AperFunction*
G04 #@! TA.AperFunction,Conductor*
G36*
X20239233Y34892893D02*
G01*
X20271549Y34867642D01*
X20315492Y34819907D01*
X20315496Y34819903D01*
X20494874Y34680288D01*
X20494880Y34680284D01*
X20507272Y34673578D01*
X20557663Y34623566D01*
X20573016Y34554249D01*
X20548456Y34487636D01*
X20507276Y34451952D01*
X20494606Y34445096D01*
X20494600Y34445092D01*
X20315154Y34305424D01*
X20161149Y34138129D01*
X20082825Y34018244D01*
X20028821Y33972156D01*
X19958473Y33962581D01*
X19894116Y33992559D01*
X19871859Y34018245D01*
X19793737Y34137819D01*
X19666215Y34276345D01*
X19634794Y34340010D01*
X19642781Y34410556D01*
X19687640Y34465585D01*
X19714875Y34479735D01*
X19817444Y34517991D01*
X19825560Y34524066D01*
X19934501Y34605619D01*
X20022127Y34722673D01*
X20022127Y34722674D01*
X20022129Y34722676D01*
X20060793Y34826340D01*
X20103339Y34883173D01*
X20169859Y34907984D01*
X20239233Y34892893D01*
G37*
G04 #@! TD.AperFunction*
M02*
