M48
; DRILL file {KiCad 7.0.7} date Wed Nov 15 19:25:50 2023
; FORMAT={-:-/ absolute / metric / decimal}
; #@! TF.CreationDate,2023-11-15T19:25:50-03:00
; #@! TF.GenerationSoftware,Kicad,Pcbnew,7.0.7
; #@! TF.FileFunction,Plated,1,2,PTH
FMAT,2
METRIC
; #@! TA.AperFunction,Plated,PTH,ViaDrill
T1C0.600
; #@! TA.AperFunction,Plated,PTH,ComponentDrill
T2C1.000
; #@! TA.AperFunction,Plated,PTH,ComponentDrill
T3C1.016
; #@! TA.AperFunction,Plated,PTH,ComponentDrill
T4C3.048
%
G90
G05
T1
X1.446Y28.0
X2.25Y36.5
X6.5Y10.0
X6.75Y46.75
X6.856Y2.655
X8.25Y16.75
X9.808Y35.875
X10.25Y16.75
X13.113Y32.75
X14.0Y48.75
X14.0Y46.071
X14.5Y37.0
X21.0Y44.5
X23.442Y7.735
X25.57Y44.559
X29.25Y35.25
X32.4Y32.25
X33.018Y6.338
X33.5Y34.997
X34.2Y20.65
X34.8Y30.887
X36.444Y36.0
X37.1Y20.65
X38.098Y6.338
X38.352Y14.212
X42.5Y36.0
X45.337Y28.75
X46.25Y36.0
X47.141Y28.75
X48.5Y36.0
X49.124Y40.5
X50.57Y37.005
X50.765Y41.626
X52.5Y34.75
X52.5Y30.75
X64.768Y28.055
T2
X33.018Y8.497
X35.558Y8.497
X38.098Y8.497
X40.638Y8.497
T3
X18.428Y49.27
X18.428Y46.73
X18.708Y35.832
X18.708Y33.292
X18.708Y30.752
X18.708Y28.212
X18.708Y25.672
X18.708Y23.132
X18.708Y20.592
X18.708Y18.052
X18.708Y15.512
X18.708Y12.972
X18.708Y10.432
X18.708Y7.892
X18.708Y5.352
X18.794Y52.185
X21.248Y35.832
X21.248Y33.292
X21.248Y30.752
X21.248Y28.212
X21.248Y25.672
X21.248Y23.132
X21.248Y20.592
X21.248Y18.052
X21.248Y15.512
X21.248Y12.972
X21.248Y10.432
X21.248Y7.892
X21.248Y5.352
X21.25Y49.25
X21.25Y46.71
X21.334Y52.185
X23.874Y52.185
X26.414Y52.185
X27.328Y19.495
X27.408Y32.105
X27.5Y48.635
X27.5Y46.095
X27.938Y3.925
X28.954Y52.185
X29.868Y19.495
X29.948Y32.105
X30.478Y3.925
X31.494Y52.185
X31.75Y48.615
X31.75Y46.075
X33.018Y3.925
X34.034Y52.185
X35.558Y3.925
X35.75Y48.595
X35.75Y46.055
X36.574Y52.185
X38.098Y3.925
X39.114Y52.185
X40.25Y48.545
X40.25Y46.005
X40.638Y3.925
X41.654Y52.185
X43.178Y3.925
X44.75Y48.575
X44.75Y46.035
X45.718Y52.185
X45.718Y3.925
X48.258Y52.185
X48.458Y48.605
X48.458Y46.065
X50.718Y11.425
X50.718Y8.885
X50.798Y52.185
X50.798Y3.925
X51.258Y48.605
X51.258Y46.065
X51.938Y24.5
X51.975Y28.25
X53.338Y52.185
X53.338Y3.925
X53.488Y11.345
X53.488Y8.805
X54.098Y48.625
X54.098Y46.085
X54.478Y24.5
X54.515Y28.25
X55.878Y52.185
X55.878Y3.925
X56.358Y11.345
X56.358Y8.805
X57.75Y48.575
X57.75Y46.035
X58.418Y52.185
X58.418Y3.925
X59.248Y11.355
X59.248Y8.815
X60.958Y52.185
X60.958Y3.925
X61.0Y48.575
X61.0Y46.035
X63.498Y52.185
X63.498Y3.925
T4
X15.238Y52.185
X66.038Y36.945
X66.038Y9.005
T0
M30
